<?xml version="1.0" encoding="utf-8"?>
<!-- Generator: Adobe Illustrator 21.0.0, SVG Export Plug-In . SVG Version: 6.00 Build 0)  -->
<svg version="1.1" id="Layer_1" xmlns="http://www.w3.org/2000/svg" xmlns:xlink="http://www.w3.org/1999/xlink" x="0px" y="0px" viewBox="0 0 370 370" xml:space="preserve">
<style type="text/css">
	.st0{fill:#5E2417;}
	.st1{fill:#FFFFFF;}
</style>
<rect x="0" class="st0" width="370" height="370"/>
<polygon transform="translate(-14,-33)" class="st1" points="199.4,324.2 76.5,331.5 76.6,332.4 199.4,364.4 322.2,332.4 322.3,331.5 "/>
<g transform="translate(-14,-33)">
	<path class="st1" d="M271.2,188c-1.4,2.6-5.1,7.7-7.5,9.4c-3,2.1-7.1,1.4-10.7,1.9c-5.7,0.8-10.6,4.3-15.3,7.6
		c-8.2,5.8-21.1,3-15.9,0.7c10.5-4.6,10-12.8,11.6-16c1.1-2.3,5.7-2.9,8.2-3.5c6.3-1.6,5.4-11.2,9.9-15.9c2.6-2.7,6.7-3,10.1-4.7
		c5.8-2.9,16.6-15.4,12-11.5c-6.4,5.4-10.6,9.5-17.8,11.5c-2,0.5-4,1-5.6,2.2c-4.1,3.2-3.3,9.8-6.8,13.6c-1,1.1-3.6,1.4-5.1,1.1
		c-2.8-0.6-1.9-3.6-1.7-6.5c0.6-15.9,5.7-19.2,8.8-27.2c1.6-4-3.4,5.5-6.2,7.4c-4.3,2.8-0.7-25.2-2.2-20.2c-2.1,7-1.9,10.8-1.6,18.9
		c0.2,3.9,1.3,6.9-7,38.6c-0.6,2.4-1.6,4.7-3.3,6.5c-3.7,3.8-10.4,3.5-13.5,7.8c-1.3,1.8-3,4.5-4.8,3.2c-0.6-0.4-0.9-1.2-1.1-1.9
		c-1.8-6.5-2.8-12.1,2-16.9c3.1-3.1,6.1-5.1,10.1-8c3.8-2.7,7.7-4.2,8.3-13.4c0.5-8.1-2.2-15.3-1.5-10.4c0.8,5.9,1.2,14.5-3.8,18.9
		c-2.7,2.3-5.4,4.3-8.4,6c-2.5,1.4-6.6,4.4-9.2,2.6c-2.3-1.6,9-40.2,20.5-50.4c5.3-4.7-3.1-0.6-8.2,8.1c-2.1,3.5-6.4,13-7.6,9.1
		c-1.7-5.2-8.3-35-7.4-26c0.9,8.5,5.8,21.7,4.5,32.8c-0.7,6.2-2.7,12.1-4.1,18.2c-1.8,8-1.6,10.1-1.9,18.2c-0.4,8.6-7.9-8.4-11.9-16
		c-1.1-2.1-3.1-4.7-3.1-7c0-5.6,6.5-11.6,9.5-16.4c4.7-7.6-5-17.7-9.6-19.4c-1.5-0.5,10.1,6.9,9.1,14.6c-0.6,4.7-4.3,8.3-7.4,11.8
		c-3.1,3.6-5.8,7.8-3.7,12.9c0.8,2,2.2,5.4,1.3,6.1c-4.5,3-9.1-14.5-18.7-17.6c-8.5-2.7-17-31.3-15.4-22.5
		c1.4,7.7,8.8,18.5,8.4,20.6c-0.7,3.3-25.4-9.2-23.6-7.9c23,16.2,28.3,7.5,37,18.7c2.1,2.7,3.3,6.1,5.5,8.8c1.7,2,3.9,3.4,5.9,5.1
		c8.1,6.9,14.7,23.7,8.9,28.9c-1.4,1.2-5.3-8.3-13.4-13.2c-2.9-1.8-6.2-3.1-8.8-5.3c-5.7-4.7-8.3-16.5-14.3-20.7
		c-5.5-3.8-14.5-4.9-22.4-3.6c-6.5,1.1,13.4-0.5,19.1,4.1c8.5,6.9,9.4,20.3,19.2,26c2.1,1.2,4.4,2.2,6.4,3.7c2,1.5,4.4,4.8,2,4.1
		c-5.4-1.4-16.3-10.8-26.4-10.1c-8.9,0.6-17.1,6.3-24,2.6c-9.3-5.1-11.2-6.3-17.8-8.3c-9-2.8,15.9,7.3,15.4,12.1
		c-0.3,2.7-16.2,0.6-22.3-2.1c-6.5-2.9,11.8,10.1,27.4,4.2c17.1-6.5,32.4-6.5,42,6.7c3.8,5.3-6.1,2.1-11.8,5.2
		c-3.2,1.8-10.1,6.1-13.7,6.5c-7.5,0.9-24.1-16.2-18.8-10c4.8,5.7,9.8,10.5,16.8,12.3c8.3,2.1,17.7-8.7,26-6.7
		c4.7,1.1,11.2,7.5,13.1,18.4c5.8,31.6-7.6,63.6-15.9,69.7c-3.5,2.6,58,5.3,58.8,4c0.2-0.3-0.8-2.8-2.3-7.2c-0.6-1.7-5-2.7-5.7-5
		c-0.8-2.6,2-6.6,1.2-10c-2.6-10.3-8.3-23.9-6.7-41.2c0.5-5.9,0.6-17.5,5.7-24.9c2.7-3.9,8-4.9,12.7-5.5c7.4-0.8,16.9-2,23.8,0.9
		c5.2,2.2,9.2,2.2,12.8,0.3c4.4-2.3,16.1-16.7,14.6-15.7c-5.7,3.9-9.4,11-14.9,13.1c-6.1,2.3-12.3,0.5-9.7-1.8
		c4.7-4.1,14.4-16,10-12.5c-4.4,3.5-7.2,9.4-12.8,11.2c-7,2.2-14.5,0.7-21.8,0.3c-6.6-0.3-15.5,3.6-19.8,2c-3.2-1.2,3.2-6.1,6.5-7.2
		c3.3-1.1,6.8-1.1,10.1-2.2c7.9-2.6,13-11,21.1-12.7c4.3-0.9,9.3,0.2,12.9-2.5c3.6-2.7,5.1-6.4,7.4-10.3c4.3-7.4,18.7-9.3,22-11.2
		C297.5,176.4,275.1,180.8,271.2,188z"/>
	<g>
		<path class="st1" d="M212.8,147c-3.3-2.1-1.7-4.9-1.7-4.9s2.7,0.4,4.5-0.4c0.7-0.3,1.4-0.9,1.8-1.6c0.5-1,0.8-2.4,0.7-3.5
			c-0.2-1.9-0.7-3.3-1.6-4.9c-0.7-1.2-1.4-2-1.9-3.3c-0.3-0.7-0.2-1.4-0.3-2.1c-0.1-0.8-0.7-1.4-1.3-1.2c0.5,0,0.9,0.3,1,0.8
			c0.3,1.4-1.3,2.5-2.3,3.2c-2.2,1.5-4.5,3.4-5.3,6c-1.2,3.5,1.6,6,4.6,7c0,0-1.5,2.7,1.6,5C212.6,147,212.8,147,212.8,147z"/>
	</g>
	<g>
		<path class="st1" d="M199.7,127.4c-2.1-4.1,1.1-6.1,1.1-6.1s2.5,2,4.9,2.2c1,0.1,1.9-0.1,2.8-0.6c1.1-0.7,2.2-2,2.7-3.2
			c0.9-2,1.2-3.8,1.2-6c0-1.6-0.3-2.8,0-4.4c0.1-0.9,0.6-1.5,0.9-2.3c0.3-0.9,0.1-1.8-0.6-1.9c0.6,0.3,0.7,0.9,0.6,1.4
			c-0.5,1.6-2.8,1.8-4.2,1.9c-3.1,0.2-6.6,0.9-9,3c-3.3,2.9-1.9,7.1,0.6,9.9c0,0-3.1,1.9-1.2,6.1
			C199.5,127.4,199.7,127.4,199.7,127.4z"/>
	</g>
	<g>
		<path class="st1" d="M162.2,213.4c-0.7,5.1-4.9,4.8-4.9,4.8s-1-3.4-3-5.1c-0.8-0.7-1.8-1.1-2.9-1.2c-1.5-0.1-3.2,0.4-4.5,1.2
			c-2.1,1.2-3.5,2.6-4.9,4.7c-1,1.5-1.6,2.7-2.8,4c-0.7,0.7-1.5,1-2.3,1.5c-0.8,0.6-1.3,1.6-0.7,2.1c-0.4-0.6-0.1-1.2,0.4-1.7
			c1.5-1.1,3.7,0.1,5,0.9c3,1.8,6.5,3.4,10,3c4.8-0.5,6.2-5.2,5.7-9.3c0,0,4.1,0.2,5-4.7C162.4,213.6,162.2,213.4,162.2,213.4z"/>
	</g>
	<g>
		<path class="st1" d="M138.8,167.3c-2.7,4.3-6.3,2.3-6.3,2.3s0.5-3.5-0.6-5.8c-0.5-0.9-1.2-1.7-2.1-2.2c-1.3-0.7-3.1-0.9-4.5-0.8
			c-2.4,0.3-4.2,0.9-6.3,2.2c-1.5,0.9-2.5,1.8-4.1,2.5c-0.9,0.4-1.8,0.3-2.7,0.4c-1,0.2-1.8,0.9-1.5,1.6c-0.1-0.7,0.4-1.2,1-1.3
			c1.8-0.4,3.2,1.6,4.1,2.8c1.9,2.8,4.4,5.6,7.7,6.7c4.5,1.5,7.6-2.1,8.9-6c0,0,3.5,1.9,6.3-2.2
			C138.9,167.5,138.8,167.3,138.8,167.3z"/>
	</g>
	<g>
		<path class="st1" d="M224.6,140.3c3,0.3,3.5-2.1,3.5-2.1c2.3,1,5.2,1,6.3-1.7c0.8-2,0.5-4.3,0-6.3c-0.2-0.9-0.6-2.4,0.3-3
			c0.3-0.2,0.7-0.3,1,0c-0.2-0.4-0.9-0.4-1.3,0c-0.4,0.3-0.8,0.8-1.3,1.1c-1,0.5-1.8,0.6-2.8,0.9c-1.4,0.5-2.4,1-3.5,2
			c-0.6,0.6-1.2,1.5-1.4,2.4c-0.1,0.6-0.1,1.3,0.2,1.9c0.6,1.5,2.4,2.6,2.4,2.6s-0.5,2.5-3.6,2C224.4,140.1,224.5,140.3,224.6,140.3
			z"/>
	</g>
	<g>
		<path class="st1" d="M192.1,145.8c3.3-2.2,1.9-5.2,1.9-5.2c3.2-1,6.1-3.5,5-7.2c-0.8-2.7-3.1-4.8-5.4-6.4c-1-0.7-2.6-1.9-2.3-3.4
			c0.1-0.5,0.5-0.9,1.1-0.8c-0.6-0.3-1.2,0.4-1.4,1.2c-0.2,0.7-0.1,1.5-0.4,2.2c-0.6,1.3-1.3,2.1-2.1,3.3c-1,1.7-1.6,3.2-1.9,5.1
			c-0.1,1.2,0,2.6,0.6,3.7c0.4,0.8,1,1.4,1.8,1.7c1.9,1,4.7,0.6,4.7,0.6s1.5,3-2,5.1C191.8,145.8,192,145.9,192.1,145.8z"/>
	</g>
	<g>
		<path class="st1" d="M276,188.1c2.2,5.1,6.6,3.8,6.6,3.8c0.5,4.5,3.2,9.2,8.5,8.5c3.9-0.5,7.3-3.1,10-5.8c1.2-1.2,3.3-3.1,5.1-2.3
			c0.7,0.3,1.1,0.9,0.9,1.7c0.5-0.8-0.2-1.7-1.3-2.1c-0.9-0.4-2-0.5-2.9-1.1c-1.7-1.1-2.5-2.3-4-3.6c-2-1.8-3.9-2.9-6.5-3.8
			c-1.6-0.5-3.6-0.6-5.1-0.1c-1.1,0.3-2.1,1.1-2.8,2c-1.8,2.3-1.9,6.3-1.9,6.3s-4.4,1.4-6.5-3.9C276.1,187.8,275.9,188,276,188.1z"
			/>
	</g>
	<g>
		<path class="st1" d="M234.4,215.1c0.6,2.1,2.3,1.8,2.3,1.8c0,1.8,0.8,3.7,2.9,3.8c1.5,0,3-0.8,4.2-1.7c0.5-0.4,1.4-1,2.1-0.6
			c0.2,0.2,0.4,0.4,0.3,0.7c0.2-0.3,0-0.7-0.4-0.9c-0.3-0.2-0.7-0.3-1.1-0.6c-0.6-0.5-0.9-1-1.4-1.6c-0.7-0.8-1.4-1.4-2.3-1.8
			c-0.6-0.3-1.4-0.4-2-0.3c-0.5,0.1-0.9,0.3-1.2,0.6c-0.8,0.8-1.1,2.3-1.1,2.3s-1.8,0.3-2.3-1.9C234.4,215,234.3,215.1,234.4,215.1z
			"/>
	</g>
	<g>
		<path class="st1" d="M207.8,206.8c2.6-0.3,2.6-2.5,2.6-2.5c2.1,0.4,4.6-0.3,5-2.7c0.3-1.8-0.4-3.7-1.3-5.3c-0.4-0.7-1-1.9-0.3-2.6
			c0.2-0.3,0.6-0.4,0.9-0.2c-0.3-0.3-0.8-0.1-1.1,0.3c-0.3,0.4-0.5,0.8-0.9,1.2c-0.7,0.6-1.4,0.9-2.2,1.4c-1.1,0.7-1.9,1.4-2.6,2.5
			c-0.4,0.6-0.7,1.6-0.7,2.3c0,0.6,0.2,1.1,0.5,1.5c0.8,1.1,2.6,1.7,2.6,1.7s0,2.2-2.6,2.4C207.6,206.7,207.7,206.8,207.8,206.8z"/>
	</g>
	<g>
		<path class="st1" d="M235.5,228.1c-2.3-0.3-2.7,1.5-2.7,1.5c-1.7-0.8-3.9-0.8-4.8,1.2c-0.7,1.5-0.5,3.2-0.1,4.7
			c0.2,0.7,0.4,1.8-0.3,2.3c-0.2,0.2-0.6,0.2-0.8,0c0.2,0.3,0.6,0.3,1,0c0.3-0.2,0.6-0.6,1-0.8c0.7-0.4,1.3-0.4,2.1-0.7
			c1.1-0.3,1.9-0.7,2.7-1.5c0.5-0.4,1-1.1,1.1-1.8c0.1-0.5,0.1-1-0.1-1.4c-0.4-1.1-1.8-2-1.8-2s0.5-1.8,2.7-1.4
			C235.6,228.2,235.5,228.1,235.5,228.1z"/>
	</g>
	<g>
		<path class="st1" d="M203.5,153.7c0-1.9-1.5-2.1-1.5-2.1c0.5-1.5,0.3-3.3-1.4-3.9c-1.3-0.4-2.7-0.1-3.9,0.4
			c-0.5,0.2-1.5,0.5-1.9,0c-0.2-0.2-0.2-0.4,0-0.6c-0.3,0.2-0.2,0.6,0.1,0.8c0.2,0.3,0.5,0.4,0.7,0.7c0.4,0.6,0.5,1.1,0.7,1.7
			c0.4,0.9,0.8,1.5,1.5,2.1c0.4,0.4,1,0.7,1.6,0.8c0.4,0.1,0.8,0,1.2-0.2c0.9-0.5,1.5-1.7,1.5-1.7S203.6,151.9,203.5,153.7
			C203.4,153.8,203.5,153.8,203.5,153.7z"/>
	</g>
	<g>
		<path class="st1" d="M183.9,129.6c1.3-2.7-0.7-4.1-0.7-4.1c1.7-1.8,2.7-4.6,0.5-6.6c-1.6-1.5-3.9-2-5.9-2.1
			c-0.9-0.1-2.4-0.3-2.7-1.3c-0.1-0.4,0-0.8,0.4-1c-0.5,0.1-0.6,0.7-0.4,1.3c0.2,0.5,0.5,1,0.6,1.6c0.1,1.1,0,1.9-0.1,3
			c0,1.5,0.1,2.7,0.7,4c0.3,0.8,1,1.7,1.8,2.2c0.5,0.3,1.2,0.5,1.8,0.5c1.6-0.1,3.3-1.4,3.3-1.4s2.1,1.4,0.6,4.1
			C183.7,129.7,183.9,129.7,183.9,129.6z"/>
	</g>
	<g>
		<path class="st1" d="M211.3,166.8c-0.2-2.4,1.7-2.7,1.7-2.7s0.8,1.5,1.9,2c0.4,0.2,1,0.3,1.5,0.2c0.7-0.1,1.4-0.5,1.9-1
			c0.8-0.8,1.3-1.6,1.8-2.7c0.3-0.8,0.4-1.4,0.8-2.1c0.2-0.4,0.6-0.6,0.9-1c0.3-0.4,0.4-0.9,0.1-1.1c0.2,0.2,0.2,0.6,0,0.8
			c-0.5,0.7-1.7,0.3-2.4,0.1c-1.6-0.5-3.3-0.8-4.9-0.3c-2.1,0.8-2.3,3.1-1.6,4.9c0,0-1.9,0.3-1.8,2.7
			C211.2,166.7,211.3,166.8,211.3,166.8z"/>
	</g>
	<g>
		<path class="st1" d="M271.5,227.1c1.1-1.2,2.1-0.4,2.1-0.4s-0.3,1.1-0.1,1.9c0.1,0.3,0.3,0.6,0.6,0.8c0.4,0.3,0.9,0.5,1.4,0.5
			c0.8,0,1.4-0.1,2.1-0.4c0.5-0.2,0.9-0.4,1.4-0.6c0.3-0.1,0.6,0,0.9,0c0.3,0,0.6-0.2,0.5-0.4c0,0.2-0.2,0.3-0.4,0.4
			c-0.6,0-0.9-0.7-1.1-1.1c-0.5-1-1.1-2-2.1-2.5c-1.4-0.7-2.5,0.3-3.1,1.4C273.7,226.6,272.6,225.9,271.5,227.1
			C271.5,227,271.5,227.1,271.5,227.1z"/>
	</g>
	<g>
		<path class="st1" d="M269.5,222c-1.1-1.4,0-2.4,0-2.4s1.1,0.6,2.1,0.5c0.4,0,0.7-0.2,1-0.5c0.4-0.4,0.7-0.9,0.8-1.4
			c0.2-0.9,0.2-1.6,0-2.4c-0.1-0.6-0.3-1.1-0.3-1.7c0-0.3,0.1-0.6,0.2-1c0.1-0.4-0.1-0.7-0.4-0.7c0.2,0.1,0.3,0.3,0.3,0.5
			c-0.1,0.7-0.9,0.9-1.5,1.1c-1.2,0.3-2.5,0.8-3.2,1.8c-1,1.4-0.2,2.9,1,3.8c0,0-1.1,1,0,2.4C269.4,222,269.5,222,269.5,222z"/>
	</g>
	<g>
		<path class="st1" d="M262.4,168.6c2.7-1.2,3.9,1,3.9,1s-1.4,1.5-1.6,3.1c-0.1,0.6,0,1.3,0.3,1.8c0.4,0.8,1.2,1.5,1.9,1.9
			c1.3,0.7,2.4,1,3.8,1c1.1,0.1,1.8,0,2.8,0.2c0.5,0.1,1,0.5,1.5,0.7c0.6,0.2,1.2,0.2,1.3-0.3c-0.2,0.4-0.6,0.4-1,0.3
			c-1-0.4-1-1.9-1.1-2.8c0-2-0.3-4.3-1.6-5.9c-1.7-2.2-4.5-1.5-6.4,0c0,0-1.1-2.1-3.8-1.1C262.5,168.4,262.4,168.6,262.4,168.6z"/>
	</g>
	<g>
		<path class="st1" d="M231.4,176.6c-1.7-0.5-1.3-2-1.3-2s1.2-0.1,1.9-0.7c0.3-0.2,0.5-0.6,0.6-0.9c0.1-0.5,0.1-1.1-0.1-1.6
			c-0.3-0.8-0.7-1.4-1.3-2c-0.4-0.4-0.8-0.7-1.2-1.2c-0.2-0.3-0.2-0.6-0.4-0.9c-0.2-0.3-0.5-0.5-0.7-0.4c0.2-0.1,0.4,0,0.5,0.2
			c0.3,0.6-0.3,1.3-0.6,1.6c-0.8,0.9-1.5,2-1.6,3.2c-0.1,1.7,1.4,2.4,2.8,2.5c0,0-0.3,1.4,1.3,2
			C231.4,176.6,231.4,176.6,231.4,176.6z"/>
	</g>
	<g>
		<path class="st1" d="M282.9,216.4c0.8-2.4,2.9-1.9,2.9-1.9s0.2,1.8,1,2.8c0.3,0.4,0.8,0.7,1.3,0.9c0.7,0.2,1.6,0.1,2.3-0.1
			c1.2-0.4,2-1,2.9-1.8c0.7-0.6,1-1.2,1.8-1.7c0.4-0.3,0.9-0.3,1.3-0.5c0.5-0.2,0.8-0.7,0.5-1c0.1,0.3-0.1,0.6-0.4,0.8
			c-0.8,0.4-1.8-0.4-2.4-0.9c-1.3-1.2-2.9-2.3-4.6-2.4c-2.4-0.2-3.5,2-3.7,4c0,0-2-0.5-2.9,1.8C282.9,216.3,282.9,216.4,282.9,216.4
			z"/>
	</g>
	<g>
		<path class="st1" d="M241.9,227.2c3.3-1.2,4.5,1.5,4.5,1.5s-1.8,1.7-2.2,3.4c-0.2,0.7-0.1,1.5,0.2,2.1c0.4,0.9,1.3,1.8,2.1,2.4
			c1.4,0.9,2.7,1.3,4.4,1.6c1.2,0.2,2.1,0.1,3.3,0.5c0.6,0.2,1.1,0.6,1.7,0.9c0.6,0.3,1.4,0.3,1.5-0.3c-0.3,0.4-0.7,0.5-1.1,0.3
			c-1.1-0.5-1.1-2.3-1-3.3c0.2-2.4,0-5-1.3-7.1c-1.8-2.8-5.1-2.2-7.5-0.6c0,0-1.1-2.6-4.4-1.6C242,227.1,241.9,227.2,241.9,227.2z"
			/>
	</g>
	<g>
		<path class="st1" d="M187.5,213.5c-1.8-0.6-1.4-2.1-1.4-2.1s1.3-0.1,2.1-0.8c0.3-0.3,0.5-0.6,0.6-1c0.1-0.5,0.1-1.2-0.1-1.7
			c-0.3-0.9-0.7-1.5-1.4-2.2c-0.5-0.5-0.9-0.8-1.3-1.3c-0.2-0.3-0.3-0.6-0.4-1c-0.2-0.4-0.5-0.6-0.7-0.4c0.2-0.1,0.5,0,0.6,0.3
			c0.3,0.6-0.3,1.4-0.7,1.8c-0.9,1-1.7,2.2-1.8,3.5c-0.1,1.8,1.5,2.7,3,2.8c0,0-0.4,1.5,1.4,2.2
			C187.5,213.6,187.5,213.5,187.5,213.5z"/>
	</g>
	<g>
		<path class="st1" d="M222.7,199.4c-2.4-1.9-1-4-1-4s2.1,0.5,3.5,0c0.6-0.2,1.1-0.6,1.5-1.1c0.5-0.7,0.8-1.8,0.7-2.7
			c0-1.5-0.3-2.6-0.9-4c-0.5-1-0.9-1.6-1.2-2.7c-0.2-0.5,0-1.1-0.1-1.6c-0.1-0.6-0.4-1.1-0.9-1c0.4,0,0.7,0.3,0.7,0.7
			c0.1,1.1-1.2,1.9-2,2.3c-1.8,1-3.7,2.3-4.5,4.3c-1.2,2.6,0.8,4.8,3.1,5.7c0,0-1.3,2,0.9,4C222.6,199.4,222.7,199.4,222.7,199.4z"
			/>
	</g>
	<g>
		<path class="st1" d="M150.2,176.3c-1.9,0.2-2.2-1.3-2.2-1.3s1.2-0.7,1.6-1.6c0.2-0.4,0.2-0.8,0.2-1.2c-0.1-0.5-0.5-1.1-0.8-1.5
			c-0.7-0.7-1.3-1-2.2-1.4c-0.6-0.2-1.1-0.3-1.7-0.6c-0.3-0.2-0.5-0.5-0.8-0.7c-0.3-0.2-0.7-0.3-0.8,0c0.2-0.2,0.4-0.2,0.6,0
			c0.5,0.4,0.3,1.4,0.1,1.9c-0.4,1.2-0.6,2.7-0.1,3.9c0.6,1.7,2.5,1.8,3.9,1.2C147.9,175,148.2,176.5,150.2,176.3
			C150.2,176.4,150.2,176.3,150.2,176.3z"/>
	</g>
	<g>
		<path class="st1" d="M189.9,168c2.1,1.3,3.4-0.3,3.4-0.3c1.4,1.5,3.5,2.6,5.3,1c1.3-1.2,1.9-3,2.2-4.7c0.1-0.7,0.4-2,1.3-2.1
			c0.3-0.1,0.6,0.1,0.8,0.4c0-0.4-0.5-0.6-1-0.5c-0.5,0.1-0.9,0.3-1.3,0.3c-0.9,0-1.5-0.2-2.4-0.3c-1.2-0.2-2.2-0.1-3.4,0.3
			c-0.7,0.2-1.5,0.7-1.9,1.3c-0.3,0.4-0.5,0.9-0.5,1.5c-0.1,1.3,0.9,2.8,0.9,2.8s-1.3,1.6-3.4,0.2C189.8,167.9,189.8,168,189.9,168z
			"/>
	</g>
	<g>
		<path class="st1" d="M274.7,158.5c1.6,1.3,2.8,0.2,2.8,0.2c0.9,1.4,2.6,2.6,4.3,1.5c1.2-0.8,2-2.3,2.4-3.6
			c0.2-0.6,0.6-1.6,1.4-1.6c0.3,0,0.5,0.1,0.6,0.4c0-0.3-0.4-0.5-0.8-0.5c-0.4,0-0.8,0.2-1.1,0.1c-0.7-0.1-1.2-0.3-2-0.5
			c-1-0.3-1.8-0.4-2.8-0.2c-0.6,0.1-1.3,0.4-1.8,0.8c-0.3,0.3-0.5,0.7-0.6,1.1c-0.2,1.1,0.4,2.4,0.4,2.4s-1.3,1.2-2.8-0.3
			C274.7,158.4,274.7,158.5,274.7,158.5z"/>
	</g>
	<g>
		<path class="st1" d="M152.3,146c1.8-1.2,1-2.7,1-2.7c1.7-0.5,3.2-1.8,2.6-3.8c-0.5-1.4-1.7-2.5-2.9-3.4c-0.5-0.4-1.4-1-1.2-1.8
			c0.1-0.3,0.3-0.5,0.6-0.4c-0.3-0.1-0.6,0.2-0.7,0.6c-0.1,0.4,0,0.8-0.2,1.2c-0.3,0.7-0.7,1.1-1.1,1.8c-0.5,0.9-0.8,1.7-1,2.7
			c-0.1,0.6,0,1.4,0.3,1.9c0.2,0.4,0.6,0.7,1,0.9c1,0.5,2.5,0.3,2.5,0.3s0.8,1.6-1,2.7C152.1,146,152.2,146.1,152.3,146z"/>
	</g>
	<g>
		<path class="st1" d="M105.3,195c1.4-2.3-0.3-3.6-0.3-3.6c1.6-1.5,2.7-3.8,1-5.7c-1.3-1.4-3.2-2-5-2.3c-0.8-0.1-2.1-0.4-2.3-1.4
			c-0.1-0.3,0.1-0.7,0.4-0.8c-0.4,0-0.6,0.5-0.5,1.1c0.1,0.5,0.4,0.9,0.4,1.4c0,1-0.2,1.6-0.3,2.6c-0.1,1.3-0.1,2.3,0.3,3.6
			c0.2,0.7,0.8,1.5,1.4,2c0.4,0.3,1,0.5,1.6,0.5c1.4,0,3-1,3-1s1.7,1.3,0.3,3.6C105.2,195,105.3,195,105.3,195z"/>
	</g>
	<g>
		<path class="st1" d="M238.9,176.4c2.3-0.3,2.3-2.1,2.3-2.1c1.9,0.3,4-0.2,4.4-2.4c0.3-1.6-0.3-3.3-1.1-4.7
			c-0.3-0.6-0.8-1.7-0.3-2.3c0.2-0.2,0.5-0.3,0.8-0.1c-0.2-0.3-0.7-0.1-1,0.2c-0.3,0.3-0.4,0.7-0.8,1c-0.6,0.5-1.2,0.7-1.9,1.2
			c-1,0.6-1.6,1.2-2.3,2.1c-0.4,0.6-0.7,1.4-0.7,2c0,0.5,0.2,1,0.5,1.4c0.7,1,2.3,1.5,2.3,1.5s0,1.9-2.3,2.1
			C238.8,176.3,238.9,176.4,238.9,176.4z"/>
	</g>
	<g>
		<path class="st1" d="M186,199.9c-1-2.7-3.3-2.1-3.3-2.1c-0.2-2.4-1.4-4.8-4.2-4.6c-2,0.1-3.9,1.4-5.3,2.7c-0.6,0.6-1.8,1.5-2.7,1
			c-0.3-0.2-0.5-0.5-0.4-0.9c-0.3,0.4,0.1,0.9,0.6,1.1c0.5,0.2,1,0.3,1.5,0.6c0.8,0.6,1.3,1.2,2,2c1,1,1.9,1.6,3.3,2.1
			c0.8,0.3,1.8,0.4,2.7,0.2c0.6-0.1,1.1-0.5,1.5-1c1-1.2,1.2-3.2,1.2-3.2s2.3-0.6,3.2,2.2C186,200.1,186,200,186,199.9z"/>
	</g>
	<g>
		<path class="st1" d="M179.1,174.3c-4.2-1.7-3-5.2-3-5.2s3.2-0.1,5.1-1.4c0.8-0.5,1.4-1.3,1.7-2.2c0.4-1.2,0.4-2.9,0-4.1
			c-0.6-2.1-1.5-3.6-2.9-5.3c-1-1.2-2-1.9-2.8-3.3c-0.4-0.7-0.5-1.5-0.8-2.3c-0.3-0.9-1.1-1.4-1.7-1.1c0.6-0.2,1.1,0.2,1.3,0.7
			c0.6,1.5-1,3.1-1.9,4.1c-2.2,2.1-4.3,4.8-4.8,7.9c-0.6,4.2,3,6.5,6.7,7c0,0-1.1,3.4,2.9,5.3C178.9,174.4,179.1,174.3,179.1,174.3z
			"/>
	</g>
	<g>
		<path class="st1" d="M161.5,162.9c-2.8-2-1.3-4.4-1.3-4.4s2.3,0.5,3.9-0.2c0.7-0.3,1.2-0.7,1.6-1.3c0.5-0.8,0.8-2,0.7-3
			c-0.1-1.6-0.4-2.9-1.2-4.4c-0.6-1.1-1.1-1.8-1.5-2.9c-0.2-0.6-0.1-1.2-0.2-1.8c-0.1-0.7-0.5-1.2-1-1.1c0.5,0,0.8,0.3,0.8,0.8
			c0.2,1.2-1.2,2.1-2.1,2.6c-2,1.2-4,2.8-4.9,5c-1.2,3,1.1,5.3,3.7,6.3c0,0-1.4,2.3,1.2,4.4C161.3,163,161.5,163,161.5,162.9z"/>
	</g>
	<g>
		<path class="st1" d="M185,144.9c-5,2.5-7.3-1.5-7.3-1.5s2.5-3,2.8-5.9c0.1-1.2-0.1-2.4-0.7-3.4c-0.8-1.4-2.4-2.7-3.8-3.4
			c-2.4-1.2-4.6-1.6-7.3-1.6c-2,0-3.4,0.2-5.4-0.1c-1-0.2-1.8-0.8-2.8-1.1c-1.1-0.4-2.2-0.2-2.4,0.7c0.3-0.7,1.1-0.9,1.8-0.6
			c1.9,0.6,2.1,3.4,2.2,5.1c0.2,3.8,0.9,8,3.5,10.9c3.4,4,8.5,2.5,11.9-0.5c0,0,2.3,3.8,7.3,1.6C185,145.2,185,144.9,185,144.9z"/>
	</g>
	<g>
		<path class="st1" d="M188.4,160.3c-2-0.6-1.6-2.3-1.6-2.3s1.4-0.2,2.2-0.9c0.3-0.3,0.6-0.7,0.7-1.1c0.1-0.6,0-1.3-0.2-1.9
			c-0.4-0.9-0.8-1.6-1.5-2.3c-0.5-0.5-1-0.8-1.4-1.4c-0.2-0.3-0.3-0.7-0.5-1c-0.2-0.4-0.6-0.6-0.8-0.4c0.3-0.1,0.5,0,0.6,0.3
			c0.4,0.7-0.3,1.5-0.7,1.9c-0.9,1.1-1.8,2.4-1.8,3.8c-0.1,1.9,1.7,2.8,3.3,2.9c0,0-0.4,1.6,1.5,2.3
			C188.3,160.3,188.4,160.3,188.4,160.3z"/>
	</g>
	<g>
		<path class="st1" d="M222.1,129.7c-2-1-1.3-2.7-1.3-2.7s1.6,0.1,2.6-0.5c0.4-0.2,0.7-0.6,0.9-1c0.3-0.6,0.3-1.4,0.2-2.1
			c-0.2-1.1-0.6-1.9-1.2-2.8c-0.5-0.7-0.9-1-1.3-1.8c-0.2-0.4-0.2-0.8-0.3-1.2c-0.1-0.4-0.5-0.8-0.8-0.6c0.3-0.1,0.5,0.1,0.6,0.4
			c0.3,0.8-0.6,1.5-1.1,2c-1.2,1-2.4,2.2-2.7,3.8c-0.5,2.1,1.3,3.4,3,3.8c0,0-0.7,1.7,1.2,2.8C222,129.8,222.1,129.7,222.1,129.7z"
			/>
	</g>
	<g>
		<path class="st1" d="M131.4,157.1c-3,0.4-3.5-2.1-3.5-2.1s1.8-1.1,2.5-2.5c0.3-0.6,0.4-1.2,0.2-1.8c-0.2-0.8-0.7-1.8-1.3-2.4
			c-1-1-2-1.6-3.4-2.1c-1-0.4-1.8-0.5-2.7-1c-0.5-0.3-0.8-0.7-1.2-1.1c-0.5-0.4-1.1-0.5-1.3-0.1c0.3-0.3,0.7-0.2,1,0
			c0.9,0.7,0.5,2.1,0.2,3c-0.6,1.9-1,4.2-0.2,6.2c1,2.7,3.9,2.8,6.1,1.9c0,0,0.5,2.4,3.4,2.1C131.4,157.2,131.4,157.1,131.4,157.1z"
			/>
	</g>
	<g>
		<path class="st1" d="M280.1,179.9c-2.2-3.8,0.7-5.8,0.7-5.8s2.5,1.8,4.8,1.8c0.9,0,1.8-0.2,2.6-0.7c1-0.7,2-2,2.4-3.2
			c0.8-2,1-3.7,0.8-5.8c-0.1-1.6-0.4-2.6-0.3-4.2c0.1-0.8,0.5-1.5,0.7-2.3c0.2-0.9,0-1.8-0.7-1.8c0.6,0.2,0.7,0.8,0.6,1.3
			c-0.4,1.5-2.6,1.9-3.8,2c-2.9,0.4-6.2,1.2-8.3,3.4c-3,2.9-1.4,6.8,1.1,9.3c0,0-2.9,2-0.9,5.8C279.9,179.9,280.1,179.9,280.1,179.9
			z"/>
	</g>
	<g>
		<path class="st1" d="M257.1,197.8c-4.1-2.9-2-6.4-2-6.4s3.4,0.7,5.8-0.3c1-0.4,1.8-1.1,2.3-2c0.7-1.2,1.1-3,1-4.4
			c-0.1-2.4-0.7-4.3-1.8-6.4c-0.8-1.6-1.6-2.6-2.2-4.2c-0.3-0.9-0.2-1.8-0.3-2.7c-0.1-1-0.8-1.8-1.6-1.6c0.7,0,1.1,0.5,1.2,1.1
			c0.3,1.8-1.8,3.1-3.1,3.9c-2.9,1.8-5.9,4.1-7.1,7.3c-1.7,4.4,1.7,7.7,5.5,9.2c0,0-2.1,3.4,1.8,6.4
			C256.9,197.8,257.1,197.8,257.1,197.8z"/>
	</g>
	<g>
		<path class="st1" d="M242.4,209.6c2.3-2.8,4.7-1.1,4.7-1.1s-0.7,2.4,0,4.2c0.2,0.7,0.7,1.4,1.3,1.8c0.9,0.6,2.1,0.9,3.2,0.9
			c1.8,0,3.1-0.3,4.7-1c1.2-0.5,1.9-1.1,3.2-1.4c0.6-0.2,1.3,0,2-0.1c0.7-0.1,1.4-0.5,1.2-1.1c0,0.5-0.4,0.8-0.9,0.9
			c-1.3,0.1-2.2-1.4-2.7-2.4c-1.1-2.2-2.7-4.4-5-5.5c-3.1-1.4-5.7,0.9-6.9,3.5c0,0-2.4-1.6-4.7,1
			C242.3,209.4,242.3,209.6,242.4,209.6z"/>
	</g>
	<g>
		<path class="st1" d="M263.3,162.3c-2.6-2.4-0.8-4.7-0.8-4.7s2.3,0.8,4.1,0.4c0.7-0.2,1.4-0.6,1.8-1.2c0.6-0.8,1.1-2,1.2-3
			c0.1-1.7-0.1-3.1-0.7-4.7c-0.4-1.2-0.9-2-1.1-3.2c-0.1-0.6,0.1-1.3,0.1-1.9c0-0.7-0.4-1.4-0.9-1.2c0.5,0,0.8,0.4,0.8,0.9
			c0,1.3-1.6,2-2.5,2.5c-2.2,1-4.5,2.3-5.7,4.5c-1.6,2.9,0.4,5.6,3,7c0,0-1.8,2.2,0.7,4.7C263.1,162.3,263.3,162.3,263.3,162.3z"/>
	</g>
	<g>
		<path class="st1" d="M205.2,181.8c3.3,1.4,4.8-1.1,4.8-1.1c2.3,1.9,5.6,2.9,7.8,0.2c1.6-2,2.1-4.7,2.2-7.2c0-1.1,0.2-2.9,1.4-3.3
			c0.5-0.2,0.9,0,1.2,0.4c-0.1-0.6-0.9-0.7-1.5-0.4c-0.6,0.2-1.1,0.7-1.8,0.8c-1.3,0.2-2.2,0.1-3.5,0.1c-1.8,0-3.1,0.3-4.7,1.1
			c-0.9,0.5-1.9,1.3-2.5,2.2c-0.4,0.7-0.5,1.4-0.4,2.2c0.2,1.9,1.9,3.8,1.9,3.8s-1.5,2.6-4.8,1C205.1,181.6,205.1,181.8,205.2,181.8
			z"/>
	</g>
	<g>
		<path class="st1" d="M198,188.2c1.2-2.9-1-4.2-1-4.2c1.7-2,2.6-4.9,0.2-6.9c-1.7-1.4-4.2-1.8-6.3-1.9c-0.9,0-2.6-0.1-3-1.3
			c-0.1-0.4,0-0.8,0.4-1c-0.5,0.1-0.6,0.8-0.4,1.4c0.2,0.6,0.6,1,0.7,1.6c0.2,1.1,0,2,0.1,3.1c0,1.6,0.3,2.8,1,4.2
			c0.4,0.8,1.2,1.7,2,2.2c0.6,0.3,1.3,0.5,1.9,0.4c1.7-0.2,3.4-1.7,3.4-1.7s2.3,1.3,0.9,4.2C197.8,188.3,198,188.2,198,188.2z"/>
	</g>
	<g>
		<path class="st1" d="M267.9,199.6c0.8,3.2,3.4,2.9,3.4,2.9c-0.1,2.7,0.9,5.7,4.1,5.8c2.3,0.1,4.6-1.1,6.4-2.3
			c0.8-0.6,2.2-1.5,3.2-0.8c0.4,0.2,0.5,0.7,0.3,1.1c0.4-0.4,0-1-0.5-1.4c-0.5-0.3-1.1-0.5-1.6-0.9c-0.9-0.8-1.2-1.6-2-2.5
			c-1-1.3-2-2.1-3.4-2.8c-0.9-0.4-2-0.7-3-0.6c-0.7,0.1-1.3,0.4-1.8,0.9c-1.3,1.2-1.8,3.4-1.8,3.4s-2.7,0.4-3.4-2.9
			C268,199.4,267.8,199.5,267.9,199.6z"/>
	</g>
	<g>
		<path class="st1" d="M233.2,204.8c2.9,0.3,3.4-2.1,3.4-2.1c2.2,0.9,5.1,0.9,6.2-1.8c0.8-1.9,0.5-4.2-0.1-6.1
			c-0.2-0.8-0.6-2.3,0.3-3c0.3-0.2,0.7-0.3,1,0c-0.2-0.4-0.8-0.3-1.3,0c-0.4,0.3-0.7,0.8-1.2,1.1c-0.9,0.5-1.7,0.6-2.7,0.9
			c-1.4,0.5-2.4,1-3.4,2c-0.6,0.6-1.2,1.5-1.4,2.4c-0.1,0.6,0,1.3,0.2,1.8c0.6,1.4,2.4,2.5,2.4,2.5s-0.5,2.4-3.5,2
			C233,204.7,233.1,204.8,233.2,204.8z"/>
	</g>
	<g>
		<path class="st1" d="M250.5,166.2c2.3-1.5,1.4-3.5,1.4-3.5c2.2-0.6,4.2-2.2,3.5-4.8c-0.5-1.9-2-3.3-3.5-4.5
			c-0.6-0.5-1.7-1.4-1.5-2.3c0.1-0.4,0.4-0.6,0.8-0.5c-0.4-0.2-0.8,0.2-0.9,0.8c-0.1,0.5-0.1,1-0.3,1.5c-0.4,0.9-0.9,1.4-1.5,2.2
			c-0.7,1.1-1.2,2.1-1.4,3.4c-0.1,0.8,0,1.8,0.3,2.5c0.2,0.5,0.7,0.9,1.2,1.2c1.3,0.7,3.2,0.5,3.2,0.5s1,2.1-1.4,3.4
			C250.3,166.2,250.4,166.2,250.5,166.2z"/>
	</g>
	<g>
		<path class="st1" d="M165.7,195.8c3-1.9,1.8-4.4,1.8-4.4c2.8-0.7,5.4-2.8,4.5-6.1c-0.6-2.4-2.6-4.3-4.5-5.7
			c-0.8-0.6-2.2-1.8-1.9-3c0.1-0.4,0.5-0.8,1-0.7c-0.5-0.2-1,0.3-1.2,1c-0.2,0.6-0.1,1.3-0.4,1.9c-0.5,1.1-1.2,1.8-1.9,2.8
			c-1,1.4-1.5,2.7-1.8,4.4c-0.2,1,0,2.3,0.4,3.2c0.3,0.7,0.9,1.2,1.5,1.6c1.6,0.9,4.1,0.6,4.1,0.6s1.3,2.6-1.9,4.4
			C165.5,195.8,165.7,195.9,165.7,195.8z"/>
	</g>
	<g>
		<path class="st1" d="M118.1,200.1c-4-1.9-2.7-5.3-2.7-5.3s3.1,0.1,5-1.1c0.8-0.5,1.4-1.2,1.7-2.1c0.5-1.2,0.5-2.8,0.2-4
			c-0.5-2.1-1.2-3.6-2.5-5.3c-1-1.2-1.8-2-2.6-3.4c-0.4-0.7-0.4-1.5-0.7-2.3c-0.3-0.8-1-1.5-1.6-1.1c0.6-0.1,1.1,0.2,1.3,0.8
			c0.5,1.5-1.1,3-2.1,3.9c-2.2,2-4.5,4.5-5.1,7.5c-0.8,4.1,2.6,6.5,6.1,7.1c0,0-1.3,3.3,2.6,5.3
			C117.9,200.3,118.1,200.2,118.1,200.1z"/>
	</g>
	<g>
		<path class="st1" d="M132.6,208c1.8-2.5-0.1-4.2-0.1-4.2c2-1.5,3.4-4.1,1.6-6.4c-1.3-1.7-3.5-2.6-5.6-3.1
			c-0.9-0.2-2.4-0.7-2.5-1.8c0-0.4,0.1-0.8,0.5-0.9c-0.5,0-0.7,0.6-0.7,1.2c0.1,0.6,0.3,1.1,0.3,1.7c0,1.1-0.4,1.8-0.6,2.9
			c-0.3,1.5-0.3,2.7,0,4.1c0.2,0.9,0.7,1.9,1.4,2.5c0.5,0.4,1.1,0.7,1.7,0.8c1.6,0.2,3.5-0.9,3.5-0.9s1.9,1.7,0,4.2
			C132.4,208.1,132.6,208.1,132.6,208z"/>
	</g>
	<g>
		<path class="st1" d="M145.3,161.3c2-3.4-0.6-5.4-0.6-5.4c2.4-2.2,4-5.7,1.4-8.5c-1.9-2.1-4.8-2.9-7.5-3.4c-1.2-0.2-3.1-0.6-3.4-2
			c-0.1-0.5,0.1-1,0.6-1.2c-0.6,0-0.9,0.8-0.7,1.6c0.2,0.7,0.5,1.3,0.6,2.1c0.1,1.4-0.2,2.4-0.4,3.8c-0.2,1.9-0.1,3.5,0.5,5.3
			c0.4,1.1,1.2,2.3,2.1,3c0.7,0.5,1.5,0.8,2.3,0.8c2.1,0,4.4-1.5,4.4-1.5s2.6,2,0.4,5.4C145.1,161.3,145.3,161.3,145.3,161.3z"/>
	</g>
	<g>
		<path class="st1" d="M239.1,146.9c4.4,1.9,6.4-1.5,6.4-1.5c3,2.5,7.5,3.9,10.4,0.3c2.2-2.6,2.8-6.3,2.9-9.6
			c0.1-1.4,0.2-3.9,1.9-4.5c0.6-0.2,1.2-0.1,1.5,0.5c-0.1-0.8-1.1-0.9-2.1-0.6c-0.8,0.3-1.5,0.9-2.4,1c-1.7,0.3-3,0.1-4.7,0.1
			c-2.4,0.1-4.2,0.5-6.3,1.5c-1.3,0.6-2.6,1.8-3.3,3c-0.5,0.9-0.7,1.9-0.6,2.9c0.3,2.5,2.5,5.1,2.5,5.1s-2,3.5-6.4,1.4
			C238.9,146.6,238.9,146.8,239.1,146.9z"/>
	</g>
	<g>
		<path class="st1" d="M107.2,208.8c0.7-3.3-1.9-4.2-1.9-4.2c1.4-2.4,1.7-5.7-1.1-7.3c-2.1-1.2-4.7-1.1-7-0.8
			c-1,0.1-2.7,0.3-3.3-0.7c-0.2-0.4-0.2-0.9,0.2-1.1c-0.5,0.2-0.5,0.9-0.1,1.5c0.3,0.5,0.8,1,1,1.6c0.4,1.1,0.4,2,0.7,3.2
			c0.3,1.6,0.9,2.9,1.8,4.2c0.6,0.8,1.6,1.6,2.5,1.9c0.7,0.2,1.4,0.2,2.1,0c1.7-0.5,3.2-2.4,3.2-2.4s2.7,0.9,1.8,4.3
			C107.1,208.9,107.2,208.9,107.2,208.8z"/>
	</g>
	<g>
		<path class="st1" d="M129.5,225.3c-2.2,1.3-1.4,3.3-1.4,3.3c-2.1,0.5-4.1,2-3.5,4.5c0.5,1.8,1.9,3.2,3.3,4.3
			c0.6,0.5,1.6,1.3,1.4,2.3c-0.1,0.3-0.4,0.6-0.7,0.5c0.4,0.2,0.8-0.2,0.9-0.7c0.1-0.5,0.1-1,0.3-1.4c0.4-0.8,0.9-1.3,1.4-2.1
			c0.7-1.1,1.2-2,1.4-3.3c0.1-0.8,0.1-1.7-0.3-2.4c-0.2-0.5-0.6-0.9-1.1-1.2c-1.2-0.7-3-0.5-3-0.5s-0.9-2,1.5-3.3
			C129.7,225.4,129.6,225.3,129.5,225.3z"/>
	</g>
	<g>
		<path class="st1" d="M152.3,186.8c-2.6,3.9-5.9,2.1-5.9,2.1s0.5-3.2-0.5-5.4c-0.4-0.9-1.1-1.6-1.9-2.1c-1.2-0.6-2.8-0.9-4.2-0.8
			c-2.3,0.2-4,0.8-5.9,1.9c-1.4,0.8-2.3,1.6-3.9,2.2c-0.8,0.3-1.7,0.2-2.5,0.4c-0.9,0.2-1.7,0.8-1.4,1.5c-0.1-0.6,0.4-1.1,1-1.2
			c1.7-0.4,3,1.6,3.8,2.7c1.8,2.6,4.1,5.3,7.2,6.4c4.2,1.4,7.2-1.9,8.4-5.5c0,0,3.3,1.8,6-1.9C152.4,187,152.3,186.8,152.3,186.8z"
			/>
	</g>
	<g>
		<path class="st1" d="M158.1,193.8c-0.1,2.9-2.5,3-2.5,3s-0.7-1.9-2-2.7c-0.5-0.3-1.1-0.5-1.7-0.5c-0.8,0-1.8,0.4-2.5,0.9
			c-1.1,0.8-1.9,1.7-2.6,2.9c-0.5,0.9-0.7,1.6-1.4,2.4c-0.3,0.4-0.8,0.6-1.2,1c-0.4,0.4-0.6,1-0.3,1.2c-0.2-0.3-0.1-0.7,0.2-1
			c0.8-0.7,2.1-0.1,2.9,0.3c1.8,0.9,3.8,1.6,5.8,1.2c2.7-0.5,3.3-3.2,2.8-5.6c0,0,2.3-0.1,2.6-2.9
			C158.2,193.9,158.1,193.8,158.1,193.8z"/>
	</g>
	<g>
		<path class="st1" d="M108.7,214.9c-1,2.7-3.3,2-3.3,2s-0.1-2-1-3.2c-0.4-0.5-0.9-0.9-1.5-1c-0.8-0.2-1.9-0.2-2.7,0.1
			c-1.3,0.4-2.3,1-3.4,2c-0.8,0.7-1.2,1.3-2.1,1.9c-0.5,0.3-1,0.4-1.5,0.6c-0.5,0.2-0.9,0.7-0.7,1.1c-0.1-0.4,0.1-0.7,0.4-0.9
			c1-0.4,2,0.6,2.7,1.2c1.4,1.4,3.2,2.7,5.2,2.9c2.7,0.3,4.1-2.1,4.4-4.4c0,0,2.2,0.7,3.4-2C108.8,215,108.7,214.9,108.7,214.9z"/>
	</g>
	<g>
		<path class="st1" d="M123.4,216.9c0.6,4.3-2.9,5-2.9,5s-1.6-2.6-3.6-3.5c-0.8-0.4-1.7-0.5-2.6-0.3c-1.2,0.3-2.5,1.1-3.4,1.9
			c-1.5,1.5-2.3,2.9-3,4.9c-0.5,1.4-0.7,2.5-1.4,3.9c-0.4,0.7-1,1.1-1.5,1.8c-0.5,0.7-0.7,1.6-0.1,1.9c-0.4-0.4-0.4-1,0-1.4
			c1-1.2,3-0.7,4.3-0.3c2.8,0.8,6,1.3,8.8,0.2c3.8-1.5,3.9-5.6,2.6-8.8c0,0,3.4-0.7,3-4.9C123.6,217,123.4,216.9,123.4,216.9z"/>
	</g>
	<g>
		<path class="st1" d="M166.7,229.5c1.4,2-0.1,3.2-0.1,3.2s-1.5-0.8-2.7-0.8c-0.5,0-1,0.2-1.4,0.5c-0.5,0.5-1,1.2-1.2,1.9
			c-0.3,1.1-0.3,2.1-0.2,3.2c0.1,0.8,0.4,1.4,0.4,2.3c0,0.4-0.2,0.8-0.3,1.3c-0.1,0.5,0.1,1,0.5,1c-0.3-0.1-0.4-0.4-0.4-0.7
			c0.1-0.9,1.3-1.2,2-1.3c1.6-0.4,3.3-1,4.4-2.3c1.5-1.8,0.4-3.8-1.1-5c0,0,1.5-1.3,0.2-3.2C166.9,229.5,166.7,229.5,166.7,229.5z"
			/>
	</g>
	<g>
		<path class="st1" d="M234,161.6c-4.1,0-4.3-3.3-4.3-3.3s2.6-1.2,3.7-2.9c0.4-0.7,0.7-1.6,0.6-2.4c-0.1-1.2-0.7-2.5-1.4-3.4
			c-1.2-1.5-2.5-2.5-4.2-3.3c-1.3-0.6-2.3-0.9-3.5-1.7c-0.6-0.4-1-1.1-1.5-1.6c-0.6-0.6-1.4-0.8-1.8-0.3c0.4-0.3,1-0.2,1.3,0.1
			c1.1,1,0.3,2.9-0.1,4c-1.1,2.5-1.9,5.5-1.2,8.2c1,3.7,4.8,4.3,7.9,3.4c0,0,0.3,3.2,4.2,3.4C233.9,161.7,234,161.6,234,161.6z"/>
	</g>
</g>
<g transform="translate(-14,-33)">
	<g>
		<g>
			<path class="tr0 st0" d="M240.3,315.8c-2.6-1.4-5.8-2.6-9.7-3.7c-3.8-1.1-7.9-2-12.7-2.7l-2.3-0.4l1.4-1.8c0.4-0.5,0.8-1.1,1.2-1.7
				c1.6-2.4,3-5.4,4.5-9.1c0.2-0.5,0.3-1,0.4-1.6c0.1-0.7,0.1-1.1,0-1.3l-3.5-20.1c-0.5-3.1-7.6-4.7-10.7-5.3l-0.7-0.2
				c-0.6-0.1-1.1-0.2-1.7-0.4c-0.8-0.2-1.5-0.7-2.1-1.3c-1.8-2.1-2-4.3-0.5-6.8c0.3-0.5,0.6-0.9,0.9-1.3c0.3-0.5,0.7-0.9,0.9-1.3
				c0.2-0.3,0.3-0.6,0.4-1l0.3-0.9l0.9,0c0.1,0,0.6,0,1.1,0.3c0,0,0-0.1,0-0.1c0-1.6,0.7-3.4,1.2-4.8l0.2-0.5
				c0.1-0.4,0.3-0.8,0.4-1.2l-1.2,1.4l-0.4-3.2l-0.7-1l0.9-0.7l-0.9-0.8l0.7-0.9l-0.9-0.5l0.4-1.1l0-0.1l-0.9-0.6l0.5-1
				c0,0,0-0.1,0-0.1l-0.7-0.5l0-0.9c0-0.1-0.1-0.3-0.2-0.5c-0.1-0.2-0.3-0.4-0.4-0.5l-0.7-0.4l0-0.8c0,0-0.1-0.1-0.2-0.3
				c-0.1-0.2-0.3-0.3-0.5-0.4c0,0,0,0-0.1,0l-1.3-0.3l0.2-1.3c0,0,0-0.1,0-0.1l-1-0.4l0-1.1c0-0.1,0-0.2-0.1-0.2l-0.8,0l-0.4-0.8
				l-0.7-0.2l-0.2-0.7l-1-0.6l-1.1,0.7l-0.2,0.7l-0.6,0.2l-0.3,0.7l-0.7,0.1c-0.1,0.1-0.1,0.1-0.1,0.2l0.1,1.1l-1.1,0.4
				c0,0,0,0.1,0,0.1l0.2,1.3l-1.3,0.3c-0.2,0.1-0.4,0.2-0.6,0.4c-0.1,0.2-0.2,0.3-0.2,0.3l0,0.8l-0.7,0.4c-0.2,0.1-0.4,0.3-0.5,0.5
				c-0.2,0.2-0.2,0.4-0.2,0.5l0.1,0.8l-0.7,0.5c-0.1,0.1-0.1,0.1-0.1,0.1l0.4,1l-0.9,0.7l0.4,1.1l-0.9,0.6l0.7,1l-0.8,0.8l0.9,0.7
				l-0.7,1l-0.4,3.3l-1.2-1.5c0.1,0.4,0.3,0.8,0.4,1.1l0.2,0.5c0.5,1.4,1.2,3.2,1.2,4.8c0,0,0,0.1,0,0.1c0.4-0.3,0.9-0.3,1.1-0.3
				l0.9,0l0.3,0.9c0.1,0.3,0.3,0.7,0.4,1c0.2,0.5,0.6,0.9,0.9,1.4c0.7,0.9,1.4,1.9,1.7,3.2c0.4,1.7,0,3.3-1.4,4.8
				c-0.6,0.6-1.3,1.1-2.1,1.3c-0.6,0.1-1.2,0.3-1.7,0.4l-0.7,0.1c-3,0.6-10.1,2.2-10.7,5.3l-0.8,4.4c-0.9,5.1-1.8,10.5-2.8,15.7
				c-0.1,0.5-0.2,0.9-0.3,1.4c-0.1,0.5-0.3,0.9-0.5,1.4l-6.8,15.6c-0.2,0.2-0.3,0.5-0.5,0.7l-0.3,0.4l-0.5,0.2
				c-1.8,0.6-3.5,1.2-5,1.8c-1,0.4-2,0.4-3,0.4c-0.8,0-1.6,0-2.1,0.2l-1.3-2.5c1.1-0.5,2.3-0.5,3.4-0.5c0.7,0,1.5,0,2-0.2
				c1.5-0.6,3-1.2,4.7-1.7c0.1-0.1,0.1-0.2,0.2-0.3l6.6-15.2c0.1-0.3,0.2-0.6,0.4-1c0.1-0.3,0.2-0.7,0.3-1.1
				c1-5.2,1.9-10.5,2.8-15.7l0.8-4.4c0.9-5,8.6-6.6,12.8-7.5l0.6-0.1c0.6-0.1,1.1-0.2,1.7-0.4c0.2-0.1,0.5-0.2,0.7-0.4
				c0.9-1.1,0.9-1.8,0.8-2.3c-0.1-0.6-0.5-1.1-0.9-1.7c0,0.1-0.1,0.3-0.1,0.4c-0.2,0.6-0.6,1.5-1.4,1.9c-0.5,0.3-1,0.3-1.5,0.3
				c-0.5-0.1-0.9-0.3-1.3-0.7c-0.5-0.5-0.8-1.4-0.7-2.3c0-0.9,0.2-1.8,0.3-2.5c0.1-0.8,0.2-1.5,0.2-2.3c0-1.1-0.6-2.7-1-3.9
				l-0.2-0.5c-0.5-1.3-1-2.8-1.2-4.3c-0.2-2.4,1.5-2.7,1.7-2.7c0.1,0,0.2,0,0.3,0c0-0.1,0-0.3,0-0.4c0-0.6,0.2-1.1,0.5-1.6
				c0,0,0,0,0-0.1c0-0.6,0.2-1.1,0.5-1.6c0-0.6,0.1-1.2,0.4-1.7c0.1-0.1,0.2-0.3,0.3-0.4c0.1-0.6,0.4-1.1,0.6-1.5
				c0.2-0.3,0.5-0.7,0.9-1c0.2-0.5,0.5-1,0.8-1.3c0.3-0.3,0.7-0.6,1-0.9c0.1-0.3,0.2-0.6,0.4-0.8c0.2-0.3,0.4-0.5,0.6-0.7
				c0.1-0.5,0.4-1,0.7-1.4c0.3-0.3,0.6-0.5,1-0.7c0.1-0.1,0.1-0.1,0.2-0.2c0.1-0.1,0.1-0.1,0.2-0.2c-0.3-0.7-0.4-1.5-0.2-2.4l2.4-12
				c0.1-0.7,0.8-1.2,1.5-1.2c0.7,0,1.3,0.5,1.5,1.2l2.4,12c0.2,0.9,0.1,1.7-0.2,2.4c0.1,0.1,0.2,0.1,0.3,0.2c0,0,0.1,0.1,0.1,0.1
				c0,0,0,0,0,0c0.4,0.2,0.8,0.4,1.1,0.7c0.4,0.4,0.6,0.9,0.8,1.4c0.2,0.2,0.4,0.4,0.6,0.6c0.2,0.3,0.3,0.6,0.4,0.9
				c0.4,0.2,0.7,0.5,1,0.9c0.3,0.3,0.6,0.8,0.8,1.4c0.4,0.3,0.7,0.7,0.8,1c0.2,0.3,0.5,0.9,0.6,1.5c0.1,0.1,0.2,0.2,0.3,0.3
				c0.4,0.6,0.5,1.2,0.5,1.8c0.3,0.5,0.4,1,0.4,1.6c0,0,0,0,0,0.1c0.3,0.5,0.5,1,0.5,1.6c0,0.1,0,0.3,0,0.4c0.1,0,0.2,0,0.3,0
				c0.8,0.1,1.5,0.6,1.7,1.5c0.1,0.3,0.1,0.7,0.1,1.2c-0.1,1.5-0.7,3-1.2,4.3l-0.2,0.5c-0.4,1.2-1,2.7-1,3.9c0,0.8,0.1,1.5,0.2,2.3
				c0.1,0.7,0.2,1.6,0.3,2.5c0,0.9-0.2,1.7-0.7,2.3c-0.3,0.4-0.8,0.6-1.3,0.7c-0.5,0.1-1,0-1.5-0.3c-0.7-0.4-1.2-1-1.4-1.9
				c0-0.1-0.1-0.3-0.1-0.4c-0.1,0.2-0.2,0.3-0.3,0.5c-0.9,1.5-0.8,2.4,0.2,3.6c0.2,0.2,0.4,0.4,0.7,0.4c0.5,0.1,1.1,0.2,1.6,0.4
				l0.7,0.2c4.2,0.9,12,2.6,12.8,7.5l3.5,20.1c0.1,0.6,0.1,1.3,0,2.2c-0.1,0.8-0.3,1.6-0.6,2.2c-1.5,4-3,7.1-4.8,9.7c0,0,0,0,0,0
				c3.9,0.7,7.5,1.5,10.8,2.4c4.1,1.2,7.5,2.4,10.2,3.9L240.3,315.8z M190.5,245.3L190.5,245.3L190.5,245.3L190.5,245.3z
				 M190.7,243.5L190.7,243.5C190.7,243.5,190.7,243.5,190.7,243.5z M199.8,221.8l-1.1,5.8c-0.1,0.5,0,0.8,0.2,1l0.8,0.7l1-0.8
				c0.2-0.1,0.4-0.4,0.3-1L199.8,221.8z M171.4,311.8l1.5-2.8c1.2-2.2,2.6-4.1,4-6.1c1.2-1.6,2.4-3.3,3.5-5.1l0,0
				c0.2-0.4,0.4-0.8,0.6-1.3c0.1-0.4,0.3-0.9,0.4-1.5c0.6-3.3,1.3-7,2-11.1l2.1-11.8l0.7,12c0.1,1.7,0.3,3.3,0.8,5.5
				c0.3,1.2,0.5,2.4,0.6,3.8c0.2,3.5-0.1,6.5-0.7,10.3c-0.1,0.8-0.3,1.3-0.5,1.9c-0.2,0.5-0.2,1.2-0.2,2l0,1.2l-1.1,0.2
				c-1.8,0.3-3.6,0.6-5.4,1c-1.7,0.4-3.4,0.8-5,1.2L171.4,311.8z M213.1,307.1l-0.7-4.1c-0.6-3.4-0.8-6.3-0.6-9.7l0,0
				c0.1-1.3,0.3-2.6,0.6-3.8c0.5-2.1,0.7-3.8,0.8-5.5l0.7-12.1l2.1,12.5c0.5,3,1,6,1.7,9c0.2,0.8,0.4,1.7,0.2,2.7l0,0.1
				c0,0.3-0.1,0.6-0.2,0.8c-0.9,2.4-1.8,4.5-2.7,6.4L213.1,307.1z"/>
		</g>
	</g>
</g>
<g transform="translate(-14,-33)">
	<path class="st1" d="M243.4,317.5c-0.4-1.3-1.2-2.3-2.4-3c-3.1-1.6-6.6-2.8-10-3.8c-4.2-1.2-8.5-2.1-12.8-2.8
		c0.4-0.6,0.9-1.2,1.3-1.8c1.9-2.9,3.4-6.2,4.6-9.4c0.2-0.6,0.4-1.3,0.5-1.9c0.1-0.6,0.1-1.2,0-1.7l-3.5-20.1
		c-0.7-4.2-8.7-5.8-12.2-6.5c-0.6-0.1-1.3-0.3-1.9-0.4c-0.5-0.1-1-0.5-1.4-0.9c-1.5-1.7-1.5-3.3-0.3-5.2c0.6-0.9,1.3-1.8,1.8-2.7
		c0.2-0.4,0.4-0.7,0.5-1.1c0.3,0,0.3,0.2,0.4,0.5c0.1,0.5,0.1,1,0.1,1.5c0,0.7,0,1.5,0.2,2.2c0.1,0.4,0.4,0.9,0.8,1.1
		c0.2,0.1,0.4,0.1,0.6,0.1c0.2,0,0.4-0.1,0.5-0.3c0.3-0.3,0.4-0.9,0.4-1.3c0-0.8-0.1-1.5-0.3-2.3c-0.1-0.9-0.2-1.6-0.2-2.5
		c0-1.5,0.7-3.2,1.2-4.6c0.5-1.3,1.1-2.8,1.2-4.2c0-0.4,0.1-1.1-0.5-1.2c-0.5-0.1-1.2,1-1.5,1.3c0,0.1-0.1,0.1-0.1,0.2
		c0-0.2-0.1-0.3-0.2-0.5c0,0,0.1-0.1,0.1-0.1c0.2-0.2,0.3-0.5,0.3-0.9c0-0.3-0.1-0.6-0.3-0.9c0,0-0.1-0.1-0.1-0.1
		c0.2-0.2,0.2-0.5,0.2-0.8c0-0.3-0.1-0.6-0.3-0.8c-0.1-0.1-0.2-0.2-0.3-0.3c0.1-0.2,0.1-0.4,0.1-0.5c0-0.3-0.1-0.7-0.3-0.9
		c-0.1-0.1-0.1-0.2-0.2-0.2c0-0.1,0.1-0.2,0.1-0.3c0.1-0.4,0-0.8-0.2-1.1l0,0c-0.1-0.2-0.3-0.3-0.4-0.4c0-0.1,0-0.2,0-0.3
		c0-0.4-0.2-0.8-0.4-1.1c-0.2-0.3-0.5-0.6-0.8-0.8c0,0-0.1-0.1-0.1-0.1c0-0.1,0-0.1,0-0.2c-0.1-0.4-0.3-0.8-0.5-1
		c-0.3-0.3-0.6-0.6-1-0.7c-0.1,0-0.2-0.1-0.3-0.1c0.1-0.4,0-0.7-0.2-1.1l0,0c-0.2-0.3-0.4-0.5-0.7-0.6c0-0.1,0-0.2,0-0.3
		c0-0.4-0.2-0.7-0.4-1c-0.2-0.2-0.3-0.3-0.6-0.4c-0.1,0-0.3-0.1-0.4-0.1c-0.1-0.1-0.2-0.3-0.3-0.4c-0.2-0.2-0.4-0.3-0.6-0.3
		c0-0.1-0.1-0.3-0.2-0.4c-0.1-0.1-0.2-0.2-0.3-0.3c0.7-0.6,0.9-1.4,0.7-2.3l-2.4-12c0-0.1-0.1-0.1-0.1-0.1c-0.1,0-0.1,0-0.1,0.1
		l-2.4,12c-0.2,0.9,0,1.7,0.6,2.3c-0.1,0.1-0.2,0.2-0.3,0.3c-0.1,0.1-0.2,0.3-0.2,0.4c-0.2,0.1-0.3,0.2-0.5,0.3
		c-0.1,0.1-0.2,0.2-0.3,0.4c-0.1,0-0.2,0-0.3,0.1c-0.2,0.1-0.4,0.2-0.6,0.4c-0.2,0.3-0.4,0.6-0.4,1c0,0.1,0,0.2,0,0.3
		c-0.3,0.1-0.6,0.3-0.8,0.6c-0.2,0.3-0.3,0.7-0.2,1.1c-0.1,0-0.2,0.1-0.3,0.1c-0.4,0.2-0.7,0.4-1,0.7c-0.3,0.3-0.5,0.7-0.5,1
		c0,0.1,0,0.1,0,0.2c-0.1,0-0.1,0.1-0.2,0.1c-0.3,0.2-0.6,0.5-0.8,0.8c-0.2,0.3-0.4,0.7-0.4,1.1c0,0.1,0,0.2,0,0.3
		c-0.2,0.1-0.3,0.3-0.5,0.5c-0.2,0.3-0.3,0.7-0.2,1.1c0,0.1,0,0.2,0.1,0.3c-0.1,0.1-0.2,0.1-0.2,0.2c-0.2,0.3-0.3,0.6-0.3,0.9
		c0,0.2,0,0.4,0.1,0.5c-0.1,0.1-0.2,0.2-0.3,0.3c-0.2,0.2-0.3,0.5-0.3,0.8c0,0.3,0.1,0.6,0.3,0.8c0,0-0.1,0.1-0.1,0.1
		c-0.2,0.2-0.3,0.5-0.3,0.9c0,0.3,0.1,0.6,0.3,0.9c0,0,0.1,0.1,0.1,0.1c-0.1,0.2-0.2,0.3-0.2,0.5c-0.1-0.1-0.1-0.1-0.1-0.2
		c-0.3-0.4-1-1.4-1.5-1.3c-0.6,0.1-0.6,0.8-0.5,1.2c0.1,1.4,0.7,2.9,1.2,4.2c0.5,1.4,1.2,3.2,1.2,4.6c0,0.9-0.1,1.7-0.2,2.5
		c-0.1,0.8-0.2,1.5-0.3,2.3c0,0.4,0.1,1,0.4,1.3c0.1,0.2,0.3,0.3,0.5,0.3c0.2,0,0.4,0,0.6-0.1c0.4-0.2,0.7-0.7,0.8-1.1
		c0.2-0.6,0.2-1.5,0.2-2.2c0-0.5,0-1,0.1-1.5c0-0.2,0.1-0.5,0.4-0.5c0.1,0.4,0.3,0.8,0.5,1.1c0.8,1.5,2.1,2.6,2.5,4.3
		c0.3,1.4-0.2,2.5-1.1,3.6c-0.4,0.4-0.8,0.7-1.4,0.9c-0.6,0.2-1.3,0.3-1.9,0.4c-3.5,0.8-11.5,2.3-12.2,6.5
		c-1.2,6.7-2.3,13.4-3.5,20.1c-0.1,0.4-0.2,0.8-0.3,1.2c-0.1,0.4-0.2,0.8-0.4,1.2l-6.7,15.3c-0.2,0.3-0.3,0.5-0.5,0.8
		c-1.7,0.6-3.4,1.2-5.1,1.9c-1.5,0.6-3,1.3-4.4,2c-1.2,0.6-2,1.6-2.4,2.9c-0.4,1.3-0.2,2.8,0.2,4.1c0.5,1.4,3.5,7,4.5,8.1
		c1.4,1.6,40.1,9.8,40.1,9.8s30.6-6.1,34.3-7.5c2.4-0.9,8.2-9.7,8.7-11.2C243.6,320.4,243.7,318.9,243.4,317.5z M214.6,284.1
		c0.6,3.2,1.1,6.4,1.8,9.6c0.2,0.7,0.3,1.4,0.2,2.2l0,0c0,0.2-0.1,0.4-0.2,0.6c-0.8,2.1-1.6,4.2-2.6,6.2c-0.5-3.2-0.8-6-0.6-9.4
		L214.6,284.1z M181.7,298.6c0.3-0.5,0.5-1.1,0.7-1.6c0.2-0.6,0.3-1.1,0.4-1.7c0.7-3.7,1.4-7.4,2-11.1c0.1,2,0.4,3.7,0.8,5.7
		c0.3,1.2,0.5,2.3,0.6,3.5c0.2,3.6-0.1,6.5-0.7,10c-0.1,0.6-0.3,1.1-0.5,1.7c-0.3,0.8-0.3,1.6-0.3,2.4c-1.8,0.3-3.6,0.7-5.5,1
		c-1.7,0.4-3.4,0.8-5.1,1.2c1.1-2.1,2.5-4,3.9-5.9C179.3,302.1,180.6,300.4,181.7,298.6z"/>
</g>
<g transform="translate(-14,-33)">
	<path class="st1" d="M200.5,370.1l-1-0.3L73.3,336.9v-137c0-20.7,9.5-32.6,13-36.4c0.8-24.2,19-30,26.9-31.4
		c0.6-8.8,3.6-15.6,8.9-20.5c6.3-5.8,14.3-7.1,18.9-7.3c2.1-9.5,12.1-18.3,29.8-26.2c14.1-6.3,28-9.7,28.6-9.9l0.9-0.2l0.9,0.2
		c0.6,0.1,14.2,3.6,28.1,9.9c17.4,7.9,27.2,16.7,29.2,26.2c4.6,0.2,12.6,1.6,18.9,7.3c5.3,4.9,8.3,11.7,9,20.5
		c7.9,1.4,26.2,7.3,26.9,31.4c3.5,3.7,13,15.7,13,36.4v137L200.5,370.1z M80.9,331l119.6,31.2l118.5-31.2V199.9
		c0-21.5-11.6-31.8-11.7-31.9l-1.3-1.1v-1.7c0-25-22.2-25.8-23.2-25.9l-3.7-0.1v-3.7c0-8.1-2.2-14.2-6.5-18.2
		c-6.8-6.2-16.8-5.4-16.9-5.4l-4.1,0.4l0-4.2c0-15.6-36.8-28.6-51-32.3c-14.5,3.7-52.1,16.7-52.1,32.3v4.2l-4.2-0.4
		c-0.1,0-10.1-0.8-16.9,5.4c-4.3,4-6.5,10.1-6.5,18.2v3.7l-3.7,0.1c-0.9,0-23.2,1.1-23.2,25.9v1.7l-1.3,1.1
		c-0.5,0.4-11.7,10.6-11.7,31.9V331z"/>
</g>
</svg>
