<svg version="1" xmlns="http://www.w3.org/2000/svg" width="534.667" height="534.667" viewBox="0 0 401.000000 401.000000"><path d="M0 87c0 68.5.3 87 1.3 87 .6 0 6.8-.5 13.7-1 14.3-1 31.9.1 42.5 2.8l6.9 1.7v5.8c.1 7.4-1.2 8.6-5 4.6-1.6-1.7-4.1-3.7-5.6-4.5-3.5-1.8-11.6-1.7-14.8.1-4 2.3-4.9 1.8-5.2-2.6-.2-3.2-.9-4.6-2.8-5.8-2.5-1.5-2.5-1.5-.7.6 1.4 1.6 1.7 3 1.2 5.7-1.2 6.2 2.4 8.3 8.7 5 4.8-2.5 10.7-1.1 16.2 3.8 3.7 3.1 5.2 3.9 7.1 3.4 3.5-.9 4.8-3.8 3.6-8.2-1.6-5.7-.1-7.6 4-5.3 1.5.8 2.4.7 3.5-.2 2-1.7 3-.3 1.3 1.8-.8 1-1.6 3.1-1.8 4.8-.1 1.6-.8 3.4-1.5 3.9-1 .7-1 1.5.2 3.9 1.1 2.2 1.2 3.5.5 4.6-1.2 1.9.5 5.1 2.6 5.1 1.5 0 .9 2.2-.7 2.8-.7.2-1.2-.3-1.2-1.2 0-.9-.4-1.6-.9-1.6s-1.1-1-1.5-2.2c-.5-2.2-.6-2.2-2.3-.6-1.6 1.6-1.8 1.6-4.6-1.5-1.9-2-3.1-2.7-3.4-2-.7 1.9-2.1 1.6-5-1.1-2.1-1.9-3-2.2-4.3-1.4-1.4.9-2.4.6-4.8-1.1-2-1.4-3.3-1.8-3.7-1.1-.8 1.3-6.7.3-7.7-1.4-.6-.8-1-.7-1.7.2-.6 1.1-1.7 1.1-4.6.3-2.1-.6-4.3-.7-4.9-.2-1.4 1-5.7.9-7.3-.2-.8-.5-1.3-.4-1.3.3s-1.6 1.1-4.3.9c-2.4-.2-4.7 0-5.2.3-.6.3-2.2.8-3.7 1.2L0 195v45.1l3 1.7c1.6.9 2.8 2.1 2.7 2.7-.2.5 1.4 1.8 3.4 2.8 2.1 1 3.7 2.3 3.6 2.9-.1.5 1.8 1.8 4.2 2.7 2.7 1.1 3.9 2 3 2.3-1 .4-.9.7.6 1.3 4.5 1.6 7.6 3.3 7.8 4.1.1.5.7.9 1.4.9.6 0 1.5.4 1.9.8.4.4 1.6.7 2.7.7 1.2 0 1.7.5 1.4 1.4-.4 1 .7 1.6 3.9 2.1 3.2.4 4.4 1 4 2-.3 1 .9 1.5 4.5 2 2.7.4 4.6 1.1 4.3 1.6-.3.5-1 .6-1.6.3-.7-.4-.8-.2-.4.4.4.7 1.7 1.2 2.9 1.2 1.2.1 3.4.1 5 .1 4.9.2 2.3 2.9-4.6 4.9-6 1.6-10.2 5.4-11.6 10.6-1.7 6-1.4 9.1 1.6 18.7 2.7 8.4 2.9 8.8 6.6 9.9 2 .6 3.7 1.4 3.7 1.8 0 .4 1.5 1 3.3 1.3 1.8.3 5.7 2 8.6 3.9 5.1 3.1 5.9 3.3 14.6 3.3 7.4 0 9.6-.4 12-2 1.7-1.1 3.7-1.8 4.5-1.7 1.1.2 1.2.1.2-.6-2-1.3 1.6-4 6.5-4.8 5.5-.9 15.6.4 14.7 1.8-.4.6-.2.8.4.4 1.6-.9 9.2 2.4 9.2 4 0 .8.5 1.4 1.2 1.4s2.7 1.5 4.6 3.2c2.2 2.1 3.1 2.6 2.4 1.3-2.3-4.4-10.8-10.3-18.2-12.6-4-1.2.5-1.1 7.5.2 6 1.1 11.3 4.1 17.4 9.8 4.9 4.6 5 3 .2-1.8-2.3-2.3-3.7-4.1-3.3-4.1.5 0 3.5 1.6 6.7 3.5 4.1 2.5 5.3 2.9 4 1.5-2.6-2.9-14.8-8.6-21.6-10-5.8-1.3-22.7-1-26.4.5-1.9.7-1.9.7-.4-.9 1.1-1.2 4.9-2.3 11.5-3.2 16.8-2.5 29.5.7 37.9 9.7 2.5 2.7 4.9 4.9 5.4 4.9.4 0-.3 3.7-1.6 8.2-5.7 19.3-5.2 31.6 1.4 34.9l3.2 1.6-11.3 2.6c-6.3 1.5-12 2.7-12.8 2.7-.9 0-2.1 2.2-3.2 5.6-1.2 3.7-3.2 7-6.2 10.1-5 5.3-5.2 5.7-2.4 5 1.1-.3 1.7-.1 1.4.4-.3.6 4.8.9 13.5.8 8.6-.1 13.9-.5 13.8-1.2-.1-.5.4-1.2 1.2-1.5 1-.3 1.2 0 .8 1.2-.6 1.4 1 1.6 15.9 1.5 16.4-.1 16.5-.1 16.2-2.2-.2-1.4-1.1-2.3-2.4-2.5-1.7-.2-2.3-1.2-2.7-4-.2-2-.3-3.8-.3-3.9.1-.1 2.5.4 5.3 1.1 5.9 1.6 19.3 8.4 20 10.2.4 1 5.2 1.3 20.8 1.3 18.4 0 20.4-.1 19.8-1.6-.4-1.1-.2-1.4.8-1.1.8.3 1.3 1 1.2 1.5-.1.7 5.2 1.1 13.8 1.2 8.7.1 13.8-.2 13.5-.8-.3-.5.3-.7 1.4-.4 1.1.3 2 .3 2 .1 0-.2-2-2.6-4.5-5.2-2.9-3.2-5.1-6.7-6.2-10.2-1-3.3-2.2-5.4-3.1-5.4-.8 0-6.5-1.2-12.8-2.7l-11.3-2.6 3.2-1.6c4.9-2.5 6.2-7.4 4.8-18.6-.7-5-2.4-12.6-3.9-17l-2.7-8.1 6.1 2.2c7.4 2.7 19.1 4.3 18 2.5-.9-1.5 1.4-4.3 6.8-8.2 2.1-1.6 3.5-2.9 3-2.9-1.7 0-6.9 3.9-9.5 7.2l-2.6 3.1-1.8-2.6c-1.5-2.3-1.5-3-.4-4.4 3-3.5 7.1-4.3 19.5-3.6 10.2.6 11.3.8 7.4 1.5-2.5.4-5.4 1.2-6.5 1.7-1.1.5-2.7 1.2-3.5 1.4-.8.3.3.6 2.5.7 2.2.1 6.7.9 10 1.8 5.6 1.6 6 1.9 6.3 5 .2 1.7.8 3.2 1.4 3.2 1.7 0 12.9 5.2 12.4 5.8-.3.3.4 1.7 1.4 3.3 6.4 9 9 25.1 5 31.6-1.1 1.8-1.7 3.3-1.5 3.3 1.2 0 4.5-6.7 4.5-9v-2.5l1.3 2.4c.6 1.3 2 2.5 2.9 2.7 1.5.2 1.7-.3 1.2-2.4-1.3-5.9-1.5-6.3-2.8-5.3-1.6 1.4-2.6.4-2.6-2.4 0-1.8.5-2.2 2.5-2 2.8.4 4.3-1 2-1.9-.8-.3-1.6-1.6-1.6-2.8-.1-1.9-.2-2-.6-.4-.4 1.5-.7 1.6-1.4.5s-.9-.9-.9.6c0 1.1-1.1-.5-2.4-3.6-1.2-3.1-3.3-7-4.5-8.8-1.2-1.7-2-3.1-1.8-3.1 1.9 0 10.8 5.6 11.2 7.1.4 1.1 1.3 1.9 2.2 1.9.9 0 5.7 1.3 10.7 2.9 12 3.8 17.2 4.5 23.9 3.2 6.9-1.5 12.7-6.3 16-13.4 2.4-5 4.3-11.7 3.4-11.7-.2 0-1.8 2.2-3.5 4.9-5.9 9.5-15.5 14-26.3 12.1-3-.5-9.2-2.2-13.9-3.8-4.7-1.6-10.6-3.2-13.2-3.6-4.2-.6-4.9-1.1-7.4-5.4-1.5-2.6-3.4-5.7-4.1-6.9-1.4-2.1-1.4-2.1 2.9-1.2 7.4 1.7 11 .4 17.2-6.1 3.1-3.3 6.5-7.8 7.6-10.2 2.4-5.2 2.6-10.6.5-11.4-.9-.4-5.3.3-9.8 1.4-17.1 4.2-27.1 3.8-39.8-1.9-4.6-2-9.6-3.4-13.2-3.7-5.7-.4-5.8-.5-3.8-2.3 1.1-1.1 2.3-1.9 2.7-1.9.4 0 1.6-.7 2.6-1.7 1-.9 2.1-1.3 2.5-1 .4.4-.2 1.4-1.3 2.2-1.8 1.4-1.8 1.4.4 1.5 1.2 0 2.5-.7 2.9-1.6.4-1.2 1.4-1.4 4-.9 2.8.5 4.1.1 6.9-2 1.9-1.5 4-2.4 4.7-2.2.7.3.2.9-1.2 1.4-1.4.6-2 1.2-1.4 1.6 1.3.8 4.3-.2 4.3-1.4 0-.5.6-.9 1.4-.9.7 0 1.9-.7 2.6-1.5.7-.8 1.8-1.5 2.4-1.5.6 0 .3.7-.6 1.4-1 .7-1.5 1.5-1.2 1.8.9 1 4.2-.3 4.8-1.8.4-1.1 1.5-1.3 3.9-.9 2.7.5 3.6.3 4.1-1 .5-1.3 1.4-1.6 3.6-1.1 2.2.4 3.5 0 4.9-1.6 1.4-1.5 2.7-1.9 4.5-1.4 1.8.4 2.8.1 3.4-1.1.6-.9 2.4-1.8 4.1-1.9 1.6-.1 4.2-1.1 5.6-2.2 1.5-1.2 3.3-1.8 4.1-1.5.8.3 2.4-.4 3.5-1.6 1.1-1.1 3-2.1 4.2-2.1 1.2 0 3-.9 4-2 .9-1.1 2.7-2 3.9-2 1.3 0 3.3-1.1 4.6-2.5 1.3-1.3 2.9-2.2 3.6-1.9.6.2 2.3-.7 3.6-2.1 1.3-1.4 3.2-2.5 4.1-2.5 1 0 2.3-.9 2.9-1.9.5-1.1 2-2.3 3.2-2.7 1.3-.4 3.9-2.4 5.8-4.4 1.9-2.1 4.7-4.5 6.3-5.5l2.7-1.7V0H0v87zm100.5-76c-.3.5-1.1 1-1.6 1-.6 0-.7-.5-.4-1 .3-.6 1.1-1 1.6-1 .6 0 .7.4.4 1zm8.5 4c0 .5-.7 1-1.6 1-.8 0-1.2-.5-.9-1 .3-.6 1-1 1.6-1 .5 0 .9.4.9 1zm7.5 5c-.3.5-1.3 1-2.1 1s-1.4-.5-1.4-1c0-.6.9-1 2.1-1 1.1 0 1.7.4 1.4 1zm-24.3 2.2c-.6.6-1.5.8-1.9.4-.4-.4-.1-1.1.7-1.6 1.9-1.2 2.7-.3 1.2 1.2zM124 25c0 .5-.9 1-2.1 1-1.1 0-1.7-.5-1.4-1 .3-.6 1.3-1 2.1-1s1.4.4 1.4 1zm155 0c0 .5-.5 1-1.1 1-.5 0-.7-.5-.4-1 .3-.6.8-1 1.1-1 .2 0 .4.4.4 1zm-148 6c0 .5-.9 1-2 1s-2-.5-2-1c0-.6.9-1 2-1s2 .4 2 1zm141.5 0c-.3.5-1.1 1-1.6 1-.6 0-.7-.5-.4-1 .3-.6 1.1-1 1.6-1 .6 0 .7.4.4 1zM137 37.5c0 .8-.7 1.5-1.5 1.5s-1.5-.7-1.5-1.5.7-1.5 1.5-1.5 1.5.7 1.5 1.5zm128.5.4c-.3.6-1.1 1.1-1.7 1.1-.6 0-.6-.6.2-1.5 1.4-1.7 2.6-1.3 1.5.4zm-122.1 5c.7 1-2.2 3.7-3 2.8-.9-.8.3-3.7 1.5-3.7.5 0 1.2.4 1.5.9zm116.3 1.6c-.4.8-1.1 1.5-1.7 1.5-.7 0-.7-.6 0-2.1 1.3-2.3 2.6-1.9 1.7.6zm-111.1 7.4c-1 1.6-3.6 1.3-3.6-.3 0-1.7 2.1-2.7 3.4-1.6.4.5.5 1.3.2 1.9zm105.4-.4c-.7.9-1.5 1.3-1.8 1-.3-.2.1-1.1.8-2 .7-.9 1.5-1.3 1.8-1 .3.2-.1 1.1-.8 2zm-149.4 2.6c.9 1.6-2.1 4.3-4 3.6-.9-.4-1.6-1.6-1.6-2.7 0-1.5.7-2 2.4-2 1.4 0 2.8.5 3.2 1.1zm198.7.3c.6 1.5-1.1 3.6-2.8 3.6-1.7 0-3.4-2.1-2.8-3.6.3-.8 1.5-1.4 2.8-1.4 1.3 0 2.5.6 2.8 1.4zm-190 1c.7 1.9-1.8 4-3.8 3.2-.8-.3-1.5-1.5-1.5-2.6 0-1.4.7-2 2.4-2 1.3 0 2.6.6 2.9 1.4zm181.2.5c0 .8-.8 1.9-1.7 2.5-2.2 1.3-4.4-.5-3.4-2.9.7-2 5.1-1.6 5.1.4zM96 56.9c0 2.2-3.7 3.8-5.2 2.3-1.7-1.7-.1-4.2 2.7-4.2 1.8 0 2.5.5 2.5 1.9zm215.8.4c.2.9-.4 2-1.3 2.3-2 .8-5-1.9-4-3.6 1-1.7 4.9-.8 5.3 1.3zM121 58.5c1.5 1.8.5 3.5-2 3.5-2.2 0-3.4-1.5-2.6-3.5.7-1.9 3-1.9 4.6 0zm33-.1c0 1.5-2.4 2.8-3.4 1.9-1.3-1.4-.5-3.3 1.4-3.3 1.1 0 2 .6 2 1.4zm95.4.1c-.6 1.6-2.4 2.1-2.4.7 0-1.1 1.1-2.2 2.1-2.2.5 0 .6.7.3 1.5zm36.1 1.1c0 1.2-.8 2-2.2 2.2-1.7.3-2.3-.2-2.3-1.6 0-2 1.6-3.3 3.5-2.8.6.2 1 1.1 1 2.2zM88 63.4c-1.6 2.1-3.9 2-4.7 0-.4-1.1.1-2.2 1.2-3.1 1.6-1.1 2.1-1.1 3.4.1 1.2 1.2 1.2 1.8.1 3zm231-.4c0 1.3-.7 2-2 2-2.4 0-4.4-3.2-2.8-4.8 1.6-1.6 4.8.4 4.8 2.8zm-191 .5c1.3 1.6.6 3.5-1.4 3.5-1.8 0-3.9-2.7-3.1-4 .9-1.4 3.1-1.2 4.5.5zm150.6-.4c.9 1.6-2.1 4.3-4.1 3.6-1.3-.5-1.4-1.1-.5-2.7 1.2-2.2 3.5-2.6 4.6-.9zM244 66.5c-.7.9-1.5 1.3-1.8 1-.3-.2.1-1.1.8-2 .7-.9 1.5-1.3 1.8-1 .3.2-.1 1.1-.8 2zm-85.2-.3c-.7 1.9-3.8 2.2-3.8.4 0-1 .9-1.6 2.1-1.6 1.2 0 1.9.5 1.7 1.2zm-76.3.8c.9 1.4-1.3 5-3.1 5-.8 0-1.7-.7-2-1.5-1.1-2.9 3.5-6.1 5.1-3.5zm241.9 1.2c1.3 2.2-.5 4.4-2.8 3.5-2.2-.9-2.2-6 0-5.5.9.2 2.2 1.1 2.8 2zm-190 2.1c.8 1.2.7 2-.2 2.9-1.6 1.6-4.7-1.3-3.8-3.7.7-1.9 2.5-1.6 4 .8zm63.4.8c3.1 1.8 3.3 1.8 6.7-.2 5-3 11.8-2.9 15 .1 3.4 3.2 3.2 7.1-.6 15.6-1.7 3.7-4.2 11.5-5.5 17.3C211 114.8 208 138 208 146c0 6.1-1.1 12-2.1 12-1.3 0-1.1-11.4.6-27.5 2.3-21.8 5.8-37.2 10.6-46.7 1.1-2.1 1.9-5.1 1.9-6.7 0-6.3-8.6-7.9-14.7-2.7l-2.7 2.4-3.7-2.5c-4.9-3.3-10.2-4-13.4-1.9-3.3 2.2-3.2 5.1.5 13.7 4 9.1 6.7 19.4 9.1 35.4 2.4 16.5 3.6 36.5 2.1 36.5-.6 0-1.3-3-1.6-6.8-2.8-30.7-6.3-49.8-11.1-61.4-1.5-3.5-3.2-7.9-3.8-9.8-2.8-9.5 7.8-14.7 18.1-8.9zm73.8-1.6c.6 1.6-1.2 4.5-2.8 4.5-1.5 0-2.1-3-.8-4.5 1.6-1.9 2.9-1.9 3.6 0zm-108.8 4.2c-.5 2.5-2.8 2.8-2.8.4 0-1.2.6-2.1 1.6-2.1.9 0 1.4.7 1.2 1.7zm76.3 1.6c-.8.8-1.1.7-1.1-.4 0-2 1.3-3.4 1.8-1.9.3.7-.1 1.7-.7 2.3zM76.8 74.2c1.4 1.4-.2 4.8-2.3 4.8-2.1 0-2.7-1.7-1.5-4 1.2-2.3 2.1-2.5 3.8-.8zm252.2.3c1.5 1.8.6 4.5-1.5 4.5-1.8 0-3-2.4-2.1-4.5.7-1.9 2-1.9 3.6 0zm-189.1 2.4c1.4 2.6-1 4.8-2.9 2.6-1.3-1.6-.7-4.5.9-4.5.6 0 1.5.9 2 1.9zm126.6-.9c.7 1.2-1.2 5-2.6 5-1.6 0-2.2-2.9-.9-4.5 1.4-1.7 2.6-1.9 3.5-.5zM167 82.6c0 .8-.7 1.4-1.5 1.4s-1.5-.9-1.5-2c0-1.3.5-1.8 1.5-1.4.8.4 1.5 1.2 1.5 2zm-94.3 0c.7 1.9-2 4.9-3.6 4-1.2-.8-1.5-3.9-.4-4.9 1.2-1.2 3.3-.7 4 .9zm163.3-.7c0 .6-.4 1.3-1 1.6-.5.3-1-.1-1-.9 0-.9.5-1.6 1-1.6.6 0 1 .4 1 .9zm97.8.8c1.2 2.2.5 4.3-1.3 4.3-1.7 0-3.8-3.6-3-5 1-1.6 3.3-1.2 4.3.7zm-189 3.1c.2 1.4-.2 2.2-1.2 2.2-1.7 0-3.9-3.4-2.9-4.4 1.4-1.3 3.8 0 4.1 2.2zm116.6-1.9c.9 1.4-.4 4.1-1.9 4.1-1.8 0-2.6-1.5-1.9-3.4.7-1.7 2.9-2.1 3.8-.7zm-90.7 6.4c-.6 2-2.7 1.9-2.7-.2 0-1.4.5-1.9 1.5-1.4.9.3 1.4 1 1.2 1.6zm-102 .2c.2.6-.3 1.9-1.1 3-1.2 1.6-1.6 1.7-3 .6-1.2-1-1.3-1.8-.5-3.3 1.1-2 4-2.1 4.6-.3zm162.5.7c-.7.7-1.2.8-1.2.2 0-1.4 1.2-2.6 1.9-1.9.2.3-.1 1.1-.7 1.7zm107.2 0c.8 1.3.7 2.1-.1 2.9-1.6 1.6-4.3-.5-4.3-3.3 0-2.4 2.8-2.1 4.4.4zm-189.9 2.3c0 2.8-2.9 2.5-3.3-.3-.3-1.9 0-2.3 1.5-2 1 .2 1.8 1.2 1.8 2.3zm108.9-1.6c.3.4-.1 1.7-.9 2.7-1.6 2.3-4 .7-2.9-1.9.7-1.8 2.9-2.3 3.8-.8zM174 98.4c0 .8-.7 1.6-1.5 2-1 .4-1.5-.1-1.5-1.4 0-1.1.7-2 1.5-2s1.5.6 1.5 1.4zm54.2.8c-.7.7-1.2.8-1.2.2 0-1.4 1.2-2.6 1.9-1.9.2.3-.1 1.1-.7 1.7zm-128.9.4c.3.3-.4 2.3-1.7 4.3-1.2 2-3 5.5-3.9 7.7-1.5 4-1.5 4.2.2 3.7 2.7-.7 6 1.4 6.7 4.1 1.2 5-4.4 9.8-8.8 7.5-2-1.1-2.1-1-1.6 9.2.4 7.8 1 11.7 2.8 15.6 2.5 5.8 8.9 12.3 12.1 12.3 3.5 0 1.5 2.5-2.2 2.6-1.9.1-4.7.7-6.2 1.3-3.5 1.4-5.1.6-10.1-5-7.2-7.9-10.6-19-10.6-34.2 0-9.6 1-15.3 3.7-22.4 1.3-3.5 2.2-4.5 5.7-5.7 4.2-1.5 12.8-2.1 13.9-1zm53.1 1.1c1.1 2.6-1.3 4.2-2.9 1.9-.8-1-1.2-2.3-.9-2.7.9-1.5 3.1-1 3.8.8zm101-.8c.9 1.4-.4 4.1-2 4.1-.8 0-1.4-.8-1.4-1.8 0-2.9 2.2-4.3 3.4-2.3zm64.2 1.4c2.3 1.2 3.4 2.8 4.7 7 7 22.1 1.8 48.5-11.3 58.2-2.8 2.1-3.6 2.3-3.8 1.1-.3-1.2-.7-1.3-2.1-.4-1.4.8-2.5.7-4.8-.4-2-1-3.4-1.1-4.5-.5-1 .7-2.5.5-4.6-.6-1.8-.8-3.2-1.1-3.2-.6 0 .5-1.5.9-3.4.9-2.8 0-4.2-.8-7.6-4.8-4.8-5.4-9.1-13.3-11.4-21.1-.9-3-1.5-5.5-1.3-5.6.1-.1 1.3-.5 2.7-.8 2.5-.6 2.7-.3 4.4 6.4 2.3 8.9 8.6 18.5 14.1 21.6 12.2 6.9 22.8-2.5 25.6-22.6 1.4-9.9.8-12.1-3.4-12.1-3.8 0-5-.7-6.7-3.9-1-2-.9-2.7.8-5 1.3-1.7 2.9-2.6 4.6-2.6 3.1.1 2.9-1.1-1.5-9.4-1.6-3-2.9-5.9-2.9-6.4 0-1.5 12.1-.2 15.6 1.6zm-140.8 5.9c-.6 1.8-2.8 2.1-2.8.4 0-.9.7-1.6 1.6-1.6.9 0 1.4.5 1.2 1.2zm48.5.3c-.3.9-.8 1.4-1 1.1-.3-.3-.2-.9.2-1.5.9-1.6 1.5-1.3.8.4zm-70.1 3.7c-1.6 1.6-3.7-.4-2.8-2.8.6-1.6.8-1.6 2.3-.1 1.3 1.3 1.5 1.9.5 2.9zM250 110c0 1.1-.7 2-1.5 2s-1.5-.9-1.5-2 .7-2 1.5-2 1.5.9 1.5 2zm-197.3 2.6c.6 1.6-1.2 3.4-3.4 3.4-1.6 0-1.7-2.2-.1-3.8 1.6-1.6 2.7-1.5 3.5.4zm299.7-1c2 .8 2.1 4.4.2 4.4-1.8 0-3.9-2.7-3.1-4 .7-1.2.8-1.2 2.9-.4zM179 115.9c0 .6-.4 1.3-1 1.6-.5.3-1-.1-1-.9 0-.9.5-1.6 1-1.6.6 0 1 .4 1 .9zm-133.7 1.6c-.1.5-.8 1.4-1.7 2-1.8 1.1-4.2-.7-3.1-2.5.8-1.3 5.1-.9 4.8.5zm112.5.7c-.2 1.3-.7 2.3-1.3 2.3-.5 0-1.1-1-1.3-2.3-.2-1.5.2-2.2 1.3-2.2s1.5.7 1.3 2.2zm89.2-.3c0 2.3-1.6 3.6-2.5 2.1-.9-1.4.1-4 1.5-4 .5 0 1 .9 1 1.9zm114.8.4c.3 1.4-.1 1.8-2 1.5-1.2-.2-2.4-1.1-2.6-2.1-.3-1.4.1-1.8 2-1.5 1.2.2 2.4 1.1 2.6 2.1zm-325.3 1.8c0 .8-1 1.5-2.2 1.7-2.5.4-3.3-2.2-1-3.1 1.8-.8 3.2-.2 3.2 1.4zm333.5-.6c1 1.2.9 1.6-.4 2.1-.9.3-2.3.3-3.2 0-1.3-.5-1.4-.9-.4-2.1.7-.8 1.6-1.5 2-1.5.4 0 1.3.7 2 1.5zm-342.2 2.2c.2.8-.6 1.3-2.2 1.3-2.5 0-3.3-1-1.9-2.4 1-1 3.6-.3 4.1 1.1zm351.2-.2c0 1.6-3.5 2.1-4.4.6-.8-1.2.4-2.1 2.6-2.1 1 0 1.8.7 1.8 1.5zM10 123c0 1.1-3 2.1-4.2 1.4-.7-.5-.4-1.2.7-2 1.8-1.3 3.5-1 3.5.6zm8.8-.8c-.5 1.5-4.8 2.4-4.8 1s1.2-2.2 3.3-2.2c1 0 1.7.5 1.5 1.2zm369.2.3c0 1.6-3.5 2.1-4.4.6-.8-1.2.4-2.1 2.6-2.1 1 0 1.8.7 1.8 1.5zm9 .5c0 .5-1.2 1-2.6 1-1.4 0-2.3-.4-1.9-1 .3-.6 1.5-1 2.6-1 1 0 1.9.4 1.9 1zm-215.5.9c.3.5.1 1.2-.5 1.6-.5.3-1-.1-1-.9 0-1.8.6-2.1 1.5-.7zm-21 3.1c0 .7-.6 1.5-1.2 1.7-.8.3-1.3-.4-1.3-1.7 0-1.3.5-2 1.3-1.8.6.3 1.2 1.1 1.2 1.8zm83.9-1.2c.2.4.1 1.4-.4 2.1-1 1.7-3.1.5-2.3-1.4.6-1.6 1.9-2 2.7-.7zm-61.7 8.4c-.3.8-.6.5-.6-.6-.1-1.1.2-1.7.5-1.3.3.3.4 1.2.1 1.9zm-45.8.4c1 .9-4.4 14.8-7.7 19.9-5.9 9-8.7 11.1-14.9 11.3-2.9.1-5.3 0-5.3-.3 0-.2 1.9-1.3 4.3-2.3 7.9-3.6 14.5-13.1 16.9-24.4 1.1-5.4 1.3-5.7 3.7-5.1 1.4.3 2.8.7 3 .9zm26.9.8c.3 1.2-.1 1.7-1 1.4-.7-.3-1.5-1.3-1.6-2.2-.3-1.2.1-1.7 1-1.4.7.3 1.5 1.3 1.6 2.2zm77.2-1c0 1.6-1.8 3.1-2.7 2.2-.8-.8.5-3.6 1.7-3.6.5 0 1 .6 1 1.4zm-73 9.3c0 1.3-.3 1.3-1.5.3-.8-.7-1.2-1.6-.9-2.1.8-1.3 2.4-.1 2.4 1.8zm49.1.6c-.8.8-1.1.7-1.1-.4 0-2 1.3-3.4 1.8-1.9.3.7-.1 1.7-.7 2.3zm19.4-1.2c-1 1.5-2.5 1-1.9-.6.4-.8 1-1.2 1.5-.9.5.3.7 1 .4 1.5zm-63.5 7.5c0 .8-.4 1.2-1 .9-.5-.3-1-1-1-1.6 0-.5.5-.9 1-.9.6 0 1 .7 1 1.6zm57.2.6c-.7.7-1.2.8-1.2.2 0-.6.3-1.4.7-1.7.3-.4.9-.5 1.2-.2.2.3-.1 1.1-.7 1.7zm-43.5 2c-.3.8-.6.5-.6-.6-.1-1.1.2-1.7.5-1.3.3.3.4 1.2.1 1.9zm-29.7.4c0 .4-1.4 3.1-3.1 6.1-2.9 5.1-3.1 6-2.7 12.9.5 7.1.4 7.5-1.8 8-1.3.3-6 3-10.4 5.9-5.2 3.4-8 4.8-8 3.8 0-4.8-22.3-6.7-31.2-2.6-5.5 2.5-5.7 3.3-3 12.1 2.4 7.4 6.8 13.9 13.2 19.3 2.8 2.4 4.9 4.7 4.7 5.3-.2.6-3.8 1.3-8 1.6-10.8.8-11.3 1.8-4.7 8.5 10.1 10.2 23.8 15.5 40.5 15.5 13 0 21.2-2.1 36-9.2l13-6.3h19l13 6.3c14.8 7.1 23 9.2 36 9.2 16.8 0 29.3-4.8 40.3-15.4l6.4-6.1-2.9-1.2c-1.5-.7-5.6-1.2-9-1.3-3.5 0-6.5-.5-6.9-1.2-.4-.6 1.4-2.9 4.5-5.6 6.4-5.5 10.6-11.6 13.2-18.9 2.9-8.7 2.7-10.1-2.6-12.4-6.7-3-15.9-3.5-24.4-1.4-5.3 1.3-7.2 2.2-7.7 3.7-.3 1.1-.9 1.6-1.3 1.1-1.1-1.8-13.1-9.1-16.7-10.3-3-1-3.4-1.5-2.7-3.3.4-1.2.8-4.9.8-8.2 0-4.9-.5-6.7-2.7-10-3.3-4.8-3.5-6.5-.7-6.5 8.7 0 22.1 14.9 23.6 26.1.5 3.5.9 4 2.7 3.5 12.3-3.4 23.2-2.7 33.4 1.9 5.8 2.7 6.1 3.4 4.1 12.7-1.4 6.5-3.9 11.7-9.1 18.6-4.1 5.5-4.1 5.4 1.7 6.7 4.4.9 7.5 3.3 7.5 5.6 0 1.2-3 5-7.2 9.2-12.8 12.8-29.3 18.6-48.8 17.4-12.7-.8-18.7-2.6-32.7-9.4l-11.7-5.8h-19.2l-11.6 5.7c-13.8 6.9-20.1 8.7-32.8 9.5-17.9 1.1-34.7-4.3-46.7-15.2-7.2-6.5-10.3-11.6-8.4-13.9.8-.9 3.2-2.1 5.5-2.7 2.2-.6 4.7-1.3 5.4-1.5.8-.2-.4-2.5-3.2-6.4-5.2-7-8.1-14.2-9.1-22.3l-.7-5.7 5.5-2.5c8.4-3.7 17.3-4.9 25.2-3.6 3.6.6 7.1 1.4 7.8 1.7.9.3 1.9-1.4 3.1-5.8 2.6-9.4 11-19.7 18.6-22.7 2.9-1.1 7-1.4 7-.5zm21.5 2.4c.3.5.1 1-.4 1-.6 0-1.1-.5-1.1-1 0-.6.2-1 .4-1 .3 0 .8.4 1.1 1zM124 166c0 .5-.7 1-1.6 1-.8 0-1.2-.5-.9-1 .3-.6 1-1 1.6-1 .5 0 .9.4.9 1zm155 0c0 .5-.7 1-1.6 1-.8 0-1.2-.5-.9-1 .3-.6 1-1 1.6-1 .5 0 .9.4.9 1zm-147 2c0 .5-.4 1-1 1-.5 0-1-.5-1-1 0-.6.5-1 1-1 .6 0 1 .4 1 1zm138.5 0c-.3.5-1.2 1-1.8 1-.7 0-.6-.4.3-1 1.9-1.2 2.3-1.2 1.5 0zm-181.3 2.2c-.6.6-1.5.8-1.9.4-.4-.4-.1-1.1.7-1.6.8-.5 1.7-.7 1.9-.4.3.2-.1 1-.7 1.6zm224.3-1.2c.3.6-.1 1.3-1 1.6-1.9.8-3 0-2-1.5.8-1.4 2.2-1.4 3-.1zM83 172.9c0 1.3-2.9 3.5-3.7 2.8-.7-.8 1.5-3.7 2.8-3.7.5 0 .9.4.9.9zm238 .5c0 1.6-1.8 3.1-2.7 2.2-.8-.8.5-3.6 1.7-3.6.5 0 1 .6 1 1.4zm43.2.3c1.9 2.2 4.8 7.8 4.8 9.4 0 .8-1 .9-3.2.4-6.6-1.5-16.5-1.1-18.5.7-2.8 2.6-3.7 2.2-5.3-2-.8-2-1.6-4-1.8-4.4-.3-.5 9.3-4 14.3-5.1 4.5-1 8.3-.6 9.7 1zm-38.2 6.7c0 .8-.4 1.7-.9 2.1-1.2.7-2.4-1.2-1.6-2.5.9-1.5 2.5-1.2 2.5.4zm28.9 6.1c-2.6.7-5.2 1.6-5.9 2-.9.5-1.1.4-.6-.3.8-1.3 6-3 9.1-3 1.1 0-.1.6-2.6 1.3zm-25.9 1.9c0 1.6-1.8 3.1-2.7 2.2-.8-.8.5-3.6 1.7-3.6.5 0 1 .6 1 1.4zM218.3 192c11.9.6 16.4 1.2 18.3 2.5 3.7 2.4 6.7 9.6 5.8 14l-.6 3.5-8.7-.8c-9.7-.8-51-1-64.6-.2l-9 .5-.3-4.3c-.4-4.8 2.5-10.9 6.1-13.2 1.3-.8 7.1-1.6 15.2-2 19-1 20.5-1 37.8 0zm150.7 0c0 .5-.7 1-1.6 1-.8 0-1.2-.5-.9-1 .3-.6 1-1 1.6-1 .5 0 .9.4.9 1zm9 0c0 .5-.7 1-1.6 1-.8 0-1.2-.5-.9-1 .3-.6 1-1 1.6-1 .5 0 .9.4.9 1zm-18 1c0 .5-.7 1-1.5 1s-1.5-.5-1.5-1c0-.6.7-1 1.5-1s1.5.4 1.5 1zm-9 1.5c0 .8-.7 1.5-1.5 1.5-2.6 0-1.8-2 1.3-2.9.1-.1.2.6.2 1.4zm-22 2.4c0 .5-.7 1.4-1.5 2.1-1.2 1-1.5 1-1.5-.2 0-.8.3-1.8.7-2.1.9-1 2.3-.9 2.3.2zm14 0c0 1-3 2.4-3.7 1.7-.3-.3-.2-.9.2-1.5.8-1.3 3.5-1.5 3.5-.2zm-10.1 5.2c-.9.5-1.5.4-1.8-.2-.2-.6.3-1.5 1-2 .9-.5 1.5-.4 1.8.2.2.6-.3 1.5-1 2zM142.2 206l5.8 4.5-3.3 1.1c-3.4 1.2-5.1.9-4.1-.8.4-.5-.8-2.3-2.5-3.8-1.7-1.6-3.1-3.6-3.1-4.5 0-2.1.3-2 7.2 3.5zm120.7.6c-3.6 3.5-5 4.4-6.3 3.7-1.3-.7-.8-1.5 3.2-4.6 6.7-5.2 8.6-4.6 3.1.9zm64.1-1.7c0 1.2-2 2.5-2.7 1.8-.7-.7.6-2.7 1.8-2.7.5 0 .9.4.9.9zm6.5 73.1c-.3.5-1.2 1-1.8 1-.7 0-.6-.4.3-1 1.9-1.2 2.3-1.2 1.5 0zM78 281.1c0 .5-.8.9-1.7.9-1.4 0-1.5.2-.5.9.7.4 3.7.6 6.5.4 4.9-.4 5.1-.3 3.2 1.2-1.8 1.5-1.6 1.5 3.8 1 3.6-.3 5.7-.2 5.7.5 0 .5-.8 1-1.7 1.1-1.5 0-1.5.2.2.8 1.1.5 2.4.6 2.9.3 1.7-1 7.6-1.1 7.6-.2 0 .6-.8 1-1.7 1-1.7.1-1.7.1 0 1.1.9.5 2.2.7 2.9.3.6-.4 2.7-.8 4.7-1 3.3-.3 3.5-.2 1.7 1.1-2.4 1.8-1 1.9 5.3.4 5-1.1 6.3-.5 3.5 1.7-1.8 1.5-1.7 1.5 1.4 1 1.7-.3 4.6-.9 6.4-1.3 2.2-.4 2.9-.3 2.4.5-.4.7-1.5 1.2-2.4 1.2-1.3 0-1.3.2.3 1.4 1.7 1.2 1.2 1.4-4.1 1.8-3.7.3-8.7 1.7-13.3 3.7-8.7 3.9-19.6 5.7-27.3 4.4-5.2-.8-5.2-.9-6.1-5-.5-2.8-1.8-5.1-3.8-6.8-3.7-3-5.3-3.2-4.4-.5.8 2.4-1.8 7-3.9 7-2.1 0-5-8.3-4.2-12.2 1.1-5.5 3.7-7.4 10.6-7.5 3.3-.1 6 .3 6 .8zm246.5-.1c-.3.5-1.1 1-1.6 1-.6 0-.7-.5-.4-1 .3-.6 1.1-1 1.6-1 .6 0 .7.4.4 1zm-7.5 2.4c0 .2-.7.6-1.5 1-.8.3-1.5.1-1.5-.4 0-.6.7-1 1.5-1s1.5.2 1.5.4zM163.8 291c3.1 2.7 5.9 5 6.4 5 .4 0 1.5 1.4 2.3 3 1.5 3 1.4 2.9-4.7-1.6-3.5-2.5-6.6-5-6.9-5.5-.3-.5-2-2-3.9-3.4-3.1-2.3-3.2-2.5-1.1-2.5 1.3 0 4.6 2.1 7.9 5zm82.7-3.8c-1 .6-5 3.8-8.9 7-3.8 3.2-7.2 5.5-7.5 5.2-.3-.3 1.2-2 3.4-3.7 2.2-1.8 5.6-4.7 7.5-6.4 1.9-1.8 4.4-3.2 5.5-3.2 2 0 2 0 0 1.1zm44 2.8c-.3.5-1 1-1.6 1-.5 0-.9-.5-.9-1 0-.6.7-1 1.6-1 .8 0 1.2.4.9 1zm-17.5 2.9c0 .5-.9 1.1-1.9 1.4-1.4.3-1.8.1-1.4-.9.6-1.5 3.3-1.9 3.3-.5zm23.4 33.3c.9 1.2 1.5 2.3 1.3 2.4-.1.1-3.3-.5-7.2-1.4-6.3-1.4-6.7-1.7-4-2.3 5.8-1.3 8.3-1 9.9 1.3zm-84 46.4c2.8 2.4 5 3.4 7.3 3.4 3.1 0 3.3.2 3.3 3.5 0 4.2-.9 4.4-4.1.9-1.3-1.5-5.8-4.9-9.9-7.6-6.5-4.3-7.1-4.9-4-4.2 1.9.3 5.3 2.2 7.4 4zm113.3.1c-.3 1-.5.4-.5-1.2 0-1.7.2-2.4.5-1.8.2.7.2 2.1 0 3zm-127.4 4.5c.8 1.2.7 2.4-.1 4.3-1 2.2-1.8 2.6-4.5 2.3-4-.4-4.8-3.7-1.7-6.8 2.4-2.4 4.8-2.3 6.3.2zm-13.7 1.4c-.3.9-.6 1.8-.6 2 0 .2-1.2.4-2.6.4h-2.6l2.3-2c2.9-2.4 4.3-2.5 3.5-.4zm27.8 6.9c.6 1.8-.2 4.5-1.5 4.5-.8 0-2.4-.8-5.8-2.7-.2-.2.2-.9.9-1.8 1.6-1.9 5.6-1.9 6.4 0zm9.6 8.5c-1.2 2.3-3 2.7-3 .7 0-1.7 1-2.7 2.7-2.7 1.1 0 1.1.5.3 2zm-61.6 5.1c-.3.5-1 .7-1.5.3-.5-.3-.7-1-.3-1.5.3-.5 1-.7 1.5-.3.5.3.7 1 .3 1.5zm6 0c-.8 1.4-2.4 1-2.4-.6 0-.9.6-1.2 1.5-.9.8.4 1.2 1 .9 1.5zm71.2.6c-1 1-1.9-.5-1-1.8.6-1.1.8-1.1 1.2 0 .2.7.1 1.5-.2 1.8zm6.1-.1c-.9.9-2.8-.6-2.1-1.8.4-.6 1-.6 1.7.1.6.6.8 1.3.4 1.7zm-72.2-.6c.3.5-.1 1-1 1s-1.3-.5-1-1c.3-.6.8-1 1-1 .2 0 .7.4 1 1zm61 0c.3.5-.1 1-1 1s-1.3-.5-1-1c.3-.6.8-1 1-1 .2 0 .7.4 1 1z"/><path d="M.1 182.7c-.1 5 1.3 5.5 5.8 2.2 4.4-3.3 10.8-3.6 16.7-.8 2.7 1.3 5.4 2.5 5.9 2.7.6.3-.3-.9-1.9-2.6-5.4-5.7-15.2-6.8-21.4-2.3-3.8 2.7-4 2.7-4.5-.7-.3-1.9-.4-1.4-.6 1.5zM.3 278c0 2.5.2 3.5.4 2.2.2-1.2.2-3.2 0-4.5-.2-1.2-.4-.2-.4 2.3zM5 278.5c0 .8.2 1.5.4 1.5s.6-.7 1-1.5c.3-.8.1-1.5-.4-1.5-.6 0-1 .7-1 1.5zM4.2 287.2c-2 2-1.4 2.7 1.3 1.5 1.4-.7 2.5-1.5 2.5-2 0-1.1-2.5-.8-3.8.5zM15 288.7c0 1 .4 1.4.8.8.4-.6 1.1-1.3 1.6-1.8.5-.4.2-.7-.7-.7-1 0-1.7.8-1.7 1.7zM0 296c0 .5.5 1 1.1 1 .5 0 .7-.5.4-1-.3-.6-.8-1-1.1-1-.2 0-.4.4-.4 1zM13.2 297.2c-2 2-1.4 2.7 1.2 1.5 1.3-.7 2.2-1.5 2-1.9-.7-1.1-1.8-1-3.2.4zM23.1 299.7c.1 2.3.2 2.4.6.6.2-1.2 1.2-2.4 2.1-2.6 1.2-.3 1-.5-.5-.6-1.9-.1-2.3.4-2.2 2.6zM22.1 308.9c-1.2 1.2-2.1 2.9-2 3.8 0 1.4.2 1.4.9-.4.5-1.2 1.7-2.6 2.7-3.1 1-.6 1.5-1.3 1.1-1.7-.3-.4-1.6.3-2.7 1.4zM32.2 309.2c-.7.7-1.2 1.9-1.2 2.7 0 1.1.5.8 1.6-.7 1.8-2.5 1.5-3.9-.4-2zM36.3 321.5c-.6 4.3-2.2 9.6-3.7 12.5-1.4 2.7-2.2 5-1.7 5 2.1 0 6.2-10.8 6.8-17.9.3-3.9.4-7.1.1-7.1-.2 0-.9 3.4-1.5 7.5zM41.6 315.7c-.7.8.4 5.5 1.6 6.8.7.7.8.2.3-1.3-.4-1.3-.2-2.9.4-3.6.9-1 .8-1.5-.3-1.9-.8-.3-1.7-.3-2 0zM2.5 319c-1.9.8-1.9.9.3.9 1.2.1 2.2-.4 2.2-.9 0-.6-.1-1-.2-.9-.2 0-1.2.4-2.3.9zM13.2 319.2c-.7.7-1.2 1.6-1.2 2.2 0 .5.6.2 1.4-.9.8-1.2 2-1.6 3.5-1.2 1.1.3 1.9.1 1.5-.4-.8-1.3-3.8-1.1-5.2.3zM30.4 319.8c-1.2.8-3.4 4.6-3.4 5.9.1.4.8-.4 1.6-2 1-1.8 2.3-2.7 4-2.7 1.4 0 2.2-.4 1.9-1-.7-1.2-2.5-1.3-4.1-.2zM102.5 322.5l-4 1.3 7-.1c4.6 0 5.8-.2 3.5-.6-3.2-.5-3.1-.6 2-1.1l5.5-.7-5-.1c-2.7 0-6.8.5-9 1.3zM3 324.1c-1.2.8-1 .9.8.4 1.3-.4 3-.1 4 .7 1.5 1.2 1.6 1.1.3-.5-1.5-1.9-2.9-2.1-5.1-.6zM114.8 324.7c.7.3 1.6.2 1.9-.1.4-.3-.2-.6-1.3-.5-1.1 0-1.4.3-.6.6zM41 328.1c-.6 1.1-1 2.5-.8 3 .2.5.8-.4 1.5-2.1 1.3-3.4.9-4-.7-.9zM117.3 326.7c.9.2 2.3.2 3 0 .6-.3-.1-.5-1.8-.5-1.6 0-2.2.2-1.2.5zM111.8 327.7c.7.3 1.6.2 1.9-.1.4-.3-.2-.6-1.3-.5-1.1 0-1.4.3-.6.6zM103.5 329.9c-5.3 2.5-4.3 2.6 2 .1 2.8-1 4.3-1.9 3.5-1.9-.8 0-3.3.8-5.5 1.8zM24 331.3c2.7 1.5 3.6 1.4 2.5-.2-.3-.6-1.6-1.1-2.8-1.1-2.1 0-2.1.1.3 1.3zM9 332c-1.3.9-1.3 1 0 1 .8 0 2.2-.5 3-1 1.3-.9 1.3-1 0-1-.8 0-2.2.5-3 1zM348.2 332.6c-2.2 1.5-2.2 1.7-.6 2.9 1.5 1 2.3.9 4.8-.6 1.7-1.1 4.2-1.9 5.6-1.9 2 0 2.2-.2 1-1-2.3-1.5-8.3-1.2-10.8.6zM44.7 333.2c1.7.8 2.1 1.7 1.7 3.4-.4 1.5-.2 2.4.5 2.4.6 0 1.1-.9 1.1-2 0-2.2 1-2.6 2.6-1 .5.5 1.5.6 2.3 0 2.8-1.7-.7-4-5.8-3.9-4 0-4.3.2-2.4 1.1zM92.2 336c-2.3 1.7-4.2 3.3-4.2 3.6 0 .4 5.6-3.4 8.5-5.8 2.3-2-.6-.5-4.3 2.2zM9.9 337.2c-1.1 2.1-1.1 2.2.4.9.9-.7 2.8-1.1 4.2-.8 1.6.3 2.4 0 2.2-.7-.2-.6-1.5-1.2-3-1.4-1.8-.2-2.9.3-3.8 2z"/><path d="M22.6 339.5c.5 2.7.2 3.2-2.3 4.2l-2.8 1.2 3.1-.5c2.5-.4 3.2-.1 4.2 2 .9 1.9.8 2.7-.4 3.6-.8.7-1.4 1.7-1.4 2.2 0 .5.7.2 1.7-.7 1.5-1.5 1.9-1.4 5.3 2.4 4 4.4 9.2 7.1 13.7 7.1l2.8.1-2.7 2.2c-1.6 1.3-2.8 2.6-2.8 3 0 1.2 10.2 5.5 18.3 7.7 9.1 2.5 10.7 2.6 10 .1-1-4 7.8-27.1 10.3-27.1.7 0 1.4-.7 1.8-1.5.8-2.2-.2-1.9-10.5 2.6-24.8 11.1-37 9.2-46.3-7.1-2.3-4-2.5-4.2-2-1.5zM147.7 338.4c-.3.8-.2 1.8.3 2.1 1.3.8 2.4-1.5 1.2-2.7-.6-.6-1.1-.4-1.5.6z"/><path d="M36.8 339.7c.6.2 1.8.2 2.5 0 .6-.3.1-.5-1.3-.5-1.4 0-1.9.2-1.2.5zM319 349.8c0 1.2.6 2.2 1.4 2.2 2 0 2.9-1.7 1.5-2.6-.8-.5-1-.2-.5.7.4.8 0 .5-.8-.5-1.6-1.9-1.6-1.9-1.6.2zM143.1 351.2c-1.3 2-1.2 2.2.1 1.1.8-.7 1.8-1 2.2-.6.4.4.4 0 0-1-.8-2.1-.6-2.1-2.3.5zM143.6 361.5c-2.1 3.2-2 3.8.2 2.4 1-.6 1.9-2 1.9-3 .2-2.5-.1-2.4-2.1.6zM136 364.9c1.6 5.6 6.3 11.1 9.4 11.1.6 0-.3-.9-2.1-2-3.4-2-6.3-6.6-6.3-10 0-1.1-.4-2-.9-2-.6 0-.6 1.2-.1 2.9zM263.2 369.5c-.6 1.4-2.6 3.4-4.4 4.5-1.8 1.1-2.8 2-2.2 2 2.6 0 9.5-7.3 8.1-8.6-.2-.2-.9.7-1.5 2.1zM123.3 371.5c.1 1.6-.3 2.9-.8 2.8-.6-.1-1 1-1 2.3 0 1.3.3 2.4.8 2.4.4 0 .7-.9.7-2 0-2.5.7-2.5 3.4-.3 2.1 1.8 2.1 1.8.3-.3-1-1.2-2.2-3.5-2.7-5l-.9-2.9.2 3zM148.3 371.3c0 1.2.1 1.6.4.8.5-1.1.7-1.1 1.4 0 .5.8.9.9.9.3 0-.6-.6-1.6-1.3-2.2-1-.8-1.3-.6-1.4 1.1zM252 370.5c-.7.9-1 1.8-.6 2.2.3.3.6 0 .6-.8 0-1.2.2-1.1 1 .1.7 1.2.9 1 .7-.8-.2-2.6-.1-2.6-1.7-.7zM278 371.4c0 .7-1 2.6-2.2 4.2-2 2.6-2 2.7-.2 1.1 2.7-2.3 3.8-2.2 3.1.3-.3 1.1 0 2 .6 2 .7 0 1.2-1.1 1.2-2.4 0-1.3-.4-2.4-1-2.3-.5.1-.9-.8-.7-2.1.2-1.2.1-2.2-.2-2.2-.3 0-.6.6-.6 1.4zM292 373.9c0 1-.9 3.1-2.1 4.7l-2.1 2.9 2.6-2.8c2.2-2.4 3.6-6.7 2.1-6.7-.3 0-.5.8-.5 1.9zM134.7 375c-.3 1.1-.1 2 .4 2s.9-.9.9-2-.2-2-.4-2-.6.9-.9 2zM266 374.4c0 .8.4 1.7.9 2 .5.4.7-.3.4-1.4-.6-2.3-1.3-2.6-1.3-.6zM306.4 374.6c-.4 1-1.9 3.2-3.3 4.7-1.8 2-2.1 2.6-.9 2.2 2-.8 6.3-7.3 5.4-8.2-.3-.3-.9.3-1.2 1.3zM109 374.7c0 .7 1 2.2 2.3 3.5 1.2 1.3 1.7 1.7 1.1.8-.6-.8-1.6-2.4-2.2-3.5-.6-1.1-1.2-1.5-1.2-.8zM308.5 376c-.8 1.3.3 5 1.5 5 .5 0 .7-1.2.4-2.6-.3-1.8-.1-2.3.7-1.8.8.4.9.3.5-.4-.9-1.5-2.3-1.5-3.1-.2zM77.1 378.3c.9.7 1.4 1.9 1.1 2.7-.4 1.1-.2 1.1 1.1-.2 2.3-2.2 2.2-2.5-1-3.1-2.3-.4-2.5-.3-1.2.6zM93 377.9c0 .7-.4 1-.8.7-.5-.3-.9.1-.9.9s.4 1.5.8 1.5c.9 0 2.1-3.1 1.4-3.8-.3-.3-.5 0-.5.7zM96.6 378.3c.2.7 1.4 1.9 2.7 2.6 2.1 1.3 2.1 1.2-.2-1.3-2.7-2.9-3.3-3.2-2.5-1.3zM106.5 379.6c0 2.5 1 2.3 1.7-.4.3-1 0-1.9-.6-1.9s-1.1 1-1.1 2.3zM293.8 379.2c.7 2.7 1.7 2.9 1.7.4 0-1.3-.5-2.3-1.1-2.3-.6 0-.9.9-.6 1.9zM322.1 377.9c-1.2.8-1.1 1.2.4 2.7 1.3 1.3 1.7 1.4 1.3.4-.3-.8.2-2 1.1-2.7 1.4-1.1 1.4-1.2.1-1.3-.8 0-2.1.4-2.9.9zM82 378.4c0 .2.8 1 1.8 1.7 1.5 1.3 1.6 1.2.3-.4s-2.1-2.1-2.1-1.3z"/></svg>