<svg xmlns="http://www.w3.org/2000/svg" xmlns:xlink="http://www.w3.org/1999/xlink">

<symbol id="theicon" x="0px" y="0px" width="16px" height="16px" viewBox="5.5 0 21.5 16" enable-background="new 0 0 32 32">
    <g>
        <g>
            <path d="M24,9c0.5,0,1,0.5,1,1v13c0,0.5-0.5,1-1,1h-4h-2v2v2l-4.8-3.6L12.7,24H12H8c-0.5,0-1-0.5-1-1V10c0-0.5,0.5-1,1-1H24
                 M24,7H8c-1.7,0-3,1.4-3,3v13c0,1.6,1.3,3,3,3h4l8,6v-6h4c1.7,0,3-1.4,3-3V10C27,8.4,25.7,7,24,7L24,7z"/>
        </g>
    </g>
    <g>
        <polygon points="16,17.8 7,11 7,13.5 10.3,16 7,18.5 7,21 12,17.2 16,20.2 20,17.2 25,21 25,18.5 21.7,16 25,13.5 25,11        "/>
    </g>
    <g>
        <path d="M21.6,3.1c-1.1-1.3-3-1.4-4.2-0.4L16,3.8l-1.4-1.1c-1.3-1.1-3.2-0.9-4.2,0.4c-1.1,1.3-0.9,3.2,0.4,4.2
            l5.2,4.4l5.2-4.4C22.5,6.2,22.7,4.3,21.6,3.1z"/>
        <path d="M16,13l-5.8-4.9C9.3,7.5,8.8,6.5,8.7,5.5c-0.1-1.1,0.2-2.1,0.9-3c0.7-0.9,1.8-1.5,3-1.5c0.9,0,1.8,0.3,2.6,1L16,2.5
            l0.8-0.6C17.5,1.4,18.4,1,19.3,1c1.2,0,2.3,0.5,3.1,1.4c0.7,0.7,1,1.7,0.9,2.7c-0.1,1.1-0.6,2.1-1.5,2.9L16,13z M12.7,3
            c-0.6,0-1.1,0.3-1.5,0.7c-0.4,0.5-0.6,1-0.5,1.5c0.1,0.5,0.3,1,0.7,1.3l4.6,3.9l4.6-3.9c0.4-0.4,0.7-0.9,0.8-1.5
            c0-0.5-0.1-0.9-0.4-1.3c-0.7-0.9-2-1-2.8-0.3l-2,1.6l-2-1.6C13.6,3.2,13.1,3,12.7,3z"/>
    </g>
</symbol>
</svg>

